STARTFONT 2.3
FONT -FontForge-Fredoka One-Book-R-Normal--18-180-72-72-P-103-ISO10646-1
SIZE 18 72 72  4
FONTBOUNDINGBOX 25 23 -3 -5
COMMENT "Generated by fontforge, http://fontforge.sourceforge.net"
COMMENT "Copyright (c) 2011 Milena B Brandao (milenabbrandao@gmail.com), with Reserved Font Name "Fredoka""
STARTPROPERTIES 40
FOUNDRY "FontForge"
FAMILY_NAME "Fredoka One"
WEIGHT_NAME "Book"
SLANT "R"
SETWIDTH_NAME "Normal"
ADD_STYLE_NAME ""
PIXEL_SIZE 18
POINT_SIZE 180
RESOLUTION_X 72
RESOLUTION_Y 72
SPACING "P"
AVERAGE_WIDTH 103
CHARSET_REGISTRY "ISO10646"
CHARSET_ENCODING "1"
FONTNAME_REGISTRY ""
CHARSET_COLLECTIONS "ISO10646-1"
BITS_PER_PIXEL 4
FONT_NAME "FredokaOne-Regular"
FACE_NAME "Fredoka One"
COPYRIGHT "Copyright (c) 2011 Milena B Brandao (milenabbrandao@gmail.com), with Reserved Font Name "Fredoka""
FONT_VERSION "1.001"
FONT_ASCENT 14
FONT_DESCENT 4
UNDERLINE_POSITION -2
UNDERLINE_THICKNESS 1
X_HEIGHT 9
CAP_HEIGHT 13
RAW_ASCENT 800
RAW_DESCENT 200
NORM_SPACE 5
RELATIVE_WEIGHT 40
RELATIVE_SETWIDTH 50
SUPERSCRIPT_X 0
SUPERSCRIPT_Y 8
SUPERSCRIPT_SIZE 11
SUBSCRIPT_X 0
SUBSCRIPT_Y 2
SUBSCRIPT_SIZE 11
AVG_LOWERCASE_WIDTH 103
AVG_UPPERCASE_WIDTH 124
ENDPROPERTIES
CHARS 235
STARTCHAR space
ENCODING 32
SWIDTH 253 0
DWIDTH 5 0
BBX 1 1 0 0
BITMAP
00
ENDCHAR
STARTCHAR exclam
ENCODING 33
SWIDTH 267 0
DWIDTH 5 0
BBX 5 14 0 0
BITMAP
023100
2FFD00
3FFF00
3FFF00
3FFF00
3FFF00
3FFF00
3FFF00
2FFD00
023100
035200
2FFE00
4FFF10
1DFB00
ENDCHAR
STARTCHAR quotedbl
ENCODING 34
SWIDTH 429 0
DWIDTH 8 0
BBX 8 8 0 6
BITMAP
02100210
6FF26FE2
8FF48FF4
7FF48FF3
5FF16FF1
2FD03FD0
0C800C80
01000100
ENDCHAR
STARTCHAR numbersign
ENCODING 35
SWIDTH 749 0
DWIDTH 13 0
BBX 14 14 0 0
BITMAP
00001200002000
0001EF700BFB00
0003FF600EFA00
0005FF301FF700
07BDFFCBCFFDB1
0EFFFFFFFFFFF2
089FFD99DFF970
000FF800BFC000
167FFA66EFC620
9FFFFFFFFFFF70
9FFFFFFFFFFE30
00AFE006FF2000
00CFB009FF0000
00BD5008D80000
ENDCHAR
STARTCHAR dollar
ENCODING 36
SWIDTH 475 0
DWIDTH 9 0
BBX 9 16 0 -2
BITMAP
0008D20000
000CF50000
005EFA2000
09FFFFF400
3FFDBFF400
5FF4034000
3FFE850000
09FFFFE400
0038DFFD00
084009FF10
7FF84CFE00
3EFFFFF800
03BFFE7000
000CF50000
000BF40000
0003600000
ENDCHAR
STARTCHAR percent
ENCODING 37
SWIDTH 838 0
DWIDTH 15 0
BBX 15 15 0 -1
BITMAP
0003200000BB0000
04EFFB0004F80000
0DFEFF700CE10000
3FC05FA05F700000
3FB04FB0CE100000
1EFBEF85F6000000
06FFFD2DD0000000
0036516F528A7000
000001EC2EFFFB00
000007F48FC8EF30
00001EB0AF409F50
00008F309F83CF40
0002EB004FFFFE10
0008F30006DFC300
0003600000000000
ENDCHAR
STARTCHAR ampersand
ENCODING 38
SWIDTH 748 0
DWIDTH 13 0
BBX 13 15 0 -1
BITMAP
0004ACB8100000
008FFFFFC00000
01FFE9DFF50000
03FFA07FF70000
01FFC7FFF30000
00DFFFFF800000
00AFFFF7000000
06FFFF90039910
2EFFFFF50CFF30
6FFDBFFF9FFE00
8FFA1CFFFFF600
6FFFA9FFFFFFA0
1DFFFFFFFFFFF0
02AFFFE959DFB0
00002100000000
ENDCHAR
STARTCHAR quotesingle
ENCODING 39
SWIDTH 208 0
DWIDTH 4 0
BBX 4 8 0 6
BITMAP
0210
6FF2
8FF4
7FF4
5FF1
2FD0
0C80
0100
ENDCHAR
STARTCHAR parenleft
ENCODING 40
SWIDTH 384 0
DWIDTH 7 0
BBX 7 19 0 -5
BITMAP
0004BE60
004FFF90
01EFE620
07FF4000
0CFD0000
1FF90000
4FF60000
6FF40000
6FF40000
7FF40000
6FF40000
4FF60000
1FF80000
0CFC0000
07FF3000
01EFC410
006FFF80
0006EF80
00000100
ENDCHAR
STARTCHAR parenright
ENCODING 41
SWIDTH 384 0
DWIDTH 7 0
BBX 7 19 0 -5
BITMAP
8EB30000
AFFF3000
26EFD000
006FF500
000EFA00
000AFE00
0008FF20
0006FF40
0005FF50
0005FF50
0006FF50
0007FF30
0009FF00
000DFB00
004FF600
14DFE100
AFFF5000
9FD50000
01000000
ENDCHAR
STARTCHAR asterisk
ENCODING 42
SWIDTH 503 0
DWIDTH 9 0
BBX 9 9 0 5
BITMAP
0002520000
000DFE0000
174EFF4810
8FFFFFFF90
AFFFFFFFA0
17FFFFF710
06FFFFF700
0AFFBFFB00
02A908B200
ENDCHAR
STARTCHAR plus
ENCODING 43
SWIDTH 527 0
DWIDTH 9 0
BBX 9 10 0 0
BITMAP
0000310000
0008FF1000
000AFF3000
055CFF7530
7FFFFFFFE0
8FFFFFFFF0
177CFF9750
000AFF3000
0009FF2000
0001530000
ENDCHAR
STARTCHAR comma
ENCODING 44
SWIDTH 238 0
DWIDTH 4 0
BBX 4 7 0 -3
BITMAP
0451
6FFA
8FFC
4EFA
08F6
3ED0
6B20
ENDCHAR
STARTCHAR hyphen
ENCODING 45
SWIDTH 433 0
DWIDTH 8 0
BBX 8 4 0 2
BITMAP
04555540
7FFFFFF4
7FFFFFF4
17888860
ENDCHAR
STARTCHAR period
ENCODING 46
SWIDTH 237 0
DWIDTH 4 0
BBX 4 4 0 0
BITMAP
0441
7FFA
8FFC
4EF7
ENDCHAR
STARTCHAR slash
ENCODING 47
SWIDTH 526 0
DWIDTH 9 0
BBX 10 15 0 -1
BITMAP
0000008F90
000001FFF2
000008FFC0
00001EFF40
00007FFC00
0001EFF500
0007FFD000
000EFF6000
006FFD0000
00DFF60000
06FFD00000
0DFF700000
5FFE100000
AFF7000000
4CD1000000
ENDCHAR
STARTCHAR zero
ENCODING 48
SWIDTH 608 0
DWIDTH 11 0
BBX 11 15 0 -1
BITMAP
000045400000
005EFFFE5000
04FFFFFFF300
0CFFFDFFFB00
2FFF405FFF10
6FFD000EFF50
7FFB000BFF60
8FFA000BFF70
7FFB000BFF70
5FFD000EFF50
2FFF607FFF10
0CFFFFFFFB00
03FFFFFFE200
004CFFFC3000
000023200000
ENDCHAR
STARTCHAR one
ENCODING 49
SWIDTH 407 0
DWIDTH 7 0
BBX 7 14 0 0
BITMAP
00002200
0006FF70
007FFF90
09FFFF90
7FFFFF90
8FFFFF90
199AFF90
0009FF90
0009FF90
0009FF90
0009FF90
0009FF90
0009FF90
0005EE50
ENDCHAR
STARTCHAR two
ENCODING 50
SWIDTH 609 0
DWIDTH 11 0
BBX 11 14 0 0
BITMAP
000155300000
008FFFFD3000
08FFFFFFE200
2FFFEDFFFB00
6FFE106FFF10
8FFA002FFF20
5FF6008FFF10
000008FFFA00
0003CFFFE200
009FFFFC2000
0BFFFF933200
5FFFFFFFFF70
7FFFFFFFFFA0
2DFFFFFFFF60
ENDCHAR
STARTCHAR three
ENCODING 51
SWIDTH 608 0
DWIDTH 11 0
BBX 11 15 0 -1
BITMAP
000145410000
007FFFFE7000
07FFFFFFF600
0DFFEBEFFE00
0BFE202FFF30
005348BFFF10
0000DFFFF700
0000DFFFE500
00005ACFFF20
4DE5000CFF70
7FFD202EFF60
3FFFFEFFFF20
08FFFFFFF700
006EFFFD5000
000023200000
ENDCHAR
STARTCHAR four
ENCODING 52
SWIDTH 592 0
DWIDTH 11 0
BBX 10 14 0 0
BITMAP
0023000130
01EFC02FFC
05FFE04FFE
08FFB04FFE
0CFF704FFE
1FFF304FFE
5FFE004FFE
8FFECCDFFE
BFFFFFFFFE
8FFFFFFFFE
0233336FFE
0000004FFE
0000004FFE
0000001DE9
ENDCHAR
STARTCHAR five
ENCODING 53
SWIDTH 530 0
DWIDTH 10 0
BBX 10 15 0 -1
BITMAP
0023333300
07FFFFFF90
0CFFFFFFC0
0EFFEEEE70
1FFF200000
3FFFB94000
5FFFFFF900
7FFFFFFF70
2CFD7DFFE0
002003FFF1
1BB206FFF0
9FFFFFFFB0
6FFFFFFE20
05CFFFC300
0002320000
ENDCHAR
STARTCHAR six
ENCODING 54
SWIDTH 560 0
DWIDTH 10 0
BBX 10 15 0 -1
BITMAP
0000001210
00007DFFE2
002DFFFFF3
00CFFFFFD1
08FFF92000
0EFF700000
4FFFBDA400
7FFFFFFF80
8FFFFFFFF4
8FFD20BFF8
5FFC009FF9
1FFFDCFFF5
07FFFFFFB0
007EFFF910
0000331000
ENDCHAR
STARTCHAR seven
ENCODING 55
SWIDTH 561 0
DWIDTH 10 0
BBX 10 14 0 0
BITMAP
0233333320
8FFFFFFFFA
BFFFFFFFFC
6FFFFFFFFA
000004FFF4
00001DFFB0
00008FFF30
0003FFF800
000BFFD100
003FFF5000
008FFD0000
00BFF80000
00DFF50000
009FE20000
ENDCHAR
STARTCHAR eight
ENCODING 56
SWIDTH 582 0
DWIDTH 10 0
BBX 10 15 0 -1
BITMAP
0002674000
008FFFFD30
08FFFFFFE1
0EFFCAFFF7
2FFF209FF9
0EFFA7EFF7
07FFFFFFD1
0AFFFFFFE2
4FFFA8EFFB
8FFB004FFF
7FFD106FFE
3FFFEDFFFA
09FFFFFFE2
006EFFFA20
0000331000
ENDCHAR
STARTCHAR nine
ENCODING 57
SWIDTH 560 0
DWIDTH 10 0
BBX 10 14 0 0
BITMAP
0003652000
01BFFFFB10
0CFFFFFFA0
5FFF9AFFF3
8FFA00BFF7
7FFD34DFF9
2EFFFFFFF9
04EFFFFFF7
0028A9FFF4
000009FFE1
0135AFFF70
1EFFFFFC00
3FFFFFB100
1DFEB50000
ENDCHAR
STARTCHAR colon
ENCODING 58
SWIDTH 238 0
DWIDTH 4 0
BBX 4 10 0 0
BITMAP
0010
4FF8
8FFC
6FFA
0340
0000
0451
6FFA
8FFC
4EF7
ENDCHAR
STARTCHAR semicolon
ENCODING 59
SWIDTH 237 0
DWIDTH 4 0
BBX 4 13 0 -3
BITMAP
0010
5FF8
8FFC
6FFA
0340
0000
0441
7FFA
8FFC
4EFA
08F6
3ED1
6B20
ENDCHAR
STARTCHAR less
ENCODING 60
SWIDTH 627 0
DWIDTH 11 0
BBX 11 13 0 0
BITMAP
000000000400
00000005DF90
000002BFFFE0
00018FFFFD40
005DFFFE7000
2BFFFFA20000
AFFFD4000000
7FFFF9100000
05EFFFE70000
0018FFFFC400
00002BFFFF90
0000005DFFE0
000000018D50
ENDCHAR
STARTCHAR equal
ENCODING 61
SWIDTH 478 0
DWIDTH 9 0
BBX 9 8 0 0
BITMAP
0344444200
7FFFFFFF10
7FFFFFFF10
1666666500
1677777400
7FFFFFFF10
7FFFFFFF10
0344444200
ENDCHAR
STARTCHAR greater
ENCODING 62
SWIDTH 627 0
DWIDTH 11 0
BBX 11 13 0 0
BITMAP
042000000000
5FE700000000
AFFFD4000000
2BFFFFB20000
005DFFFF8100
00007EFFFD40
000002BFFFE0
000007EFFFB0
0004DFFFF810
02AFFFFB2000
5EFFFD500000
AFFF80000000
2DA200000000
ENDCHAR
STARTCHAR question
ENCODING 63
SWIDTH 512 0
DWIDTH 9 0
BBX 9 14 0 0
BITMAP
0016761000
06FFFFE500
3FFFFFFF30
AFFB6AFF90
6EE102FFB0
001018FF90
0004EFFF30
000CFFE400
000CFF1000
0001420000
0002520000
001FFF1000
002FFF3000
000CFC1000
ENDCHAR
STARTCHAR at
ENCODING 64
SWIDTH 908 0
DWIDTH 16 0
BBX 16 15 0 -3
BITMAP
00005ADFFDA50000
001BFFFFFFFFD400
01CFFA6445AFFF40
09FE40485494CFD1
1FF609FFFFF61EF6
6FE06FFCEFF409FB
8FB0CF905FF206FD
8FB0CFA19FF006FD
7FD08FFFFFD008FB
4FF21CFFEFB02EF7
0DFA00327FD8EFE1
06FFA3003FFFFE40
008FFFFD439B8100
0005DFFF60000000
0000024500000000
ENDCHAR
STARTCHAR A
ENCODING 65
SWIDTH 765 0
DWIDTH 14 0
BBX 14 15 0 -1
BITMAP
00000011000000
000005FE200000
00000EFFA00000
00006FFFF30000
0000DFFFFA0000
0006FFFFFF2000
000DFFADFF9000
005FFF36FFF200
00DFFE78FFF900
05FFFFFFFFFF20
0CFFFFFFFFFF90
4FFF533338FFE1
AFFB000001EFF6
4EF40000007FC2
00100000000200
ENDCHAR
STARTCHAR B
ENCODING 66
SWIDTH 646 0
DWIDTH 12 0
BBX 12 14 0 0
BITMAP
013333320000
2FFFFFFFD300
4FFFFFFFFE20
4FFFFFFFFF90
4FFE0008FFB0
4FFE0039FFA0
4FFE09FFFF50
4FFE0AFFFF70
4FFE0269FFE0
4FFE0001FFF2
4FFE3337FFF1
4FFFFFFFFFC0
4FFFFFFFFE30
1DFFFFFEA300
ENDCHAR
STARTCHAR C
ENCODING 67
SWIDTH 679 0
DWIDTH 12 0
BBX 12 15 0 -1
BITMAP
000001343000
0002AFFFFD70
006EFFFFFFF9
05FFFFFEFFF9
0DFFE50029A1
4FFF30000000
7FFC00000000
8FFA00000000
7FFC00000000
3FFF50000000
0CFFE8214CD1
03FFFFFFFFF9
003DFFFFFFF7
00018EFFFC50
000000121000
ENDCHAR
STARTCHAR D
ENCODING 68
SWIDTH 704 0
DWIDTH 13 0
BBX 13 14 0 0
BITMAP
01333320000000
2FFFFFFD810000
4FFFFFFFFD2000
4FFFFFFFFFD100
4FFE0029FFF800
4FFE00009FFE00
4FFE00002FFF20
4FFE00000FFF30
4FFE00002FFF10
4FFE0000BFFD00
4FFE336CFFF600
4FFFFFFFFFB000
4FFFFFFFFA1000
1DFFFFEA500000
ENDCHAR
STARTCHAR E
ENCODING 69
SWIDTH 638 0
DWIDTH 11 0
BBX 11 14 0 0
BITMAP
013333333310
2FFFFFFFFFD0
4FFFFFFFFFF0
4FFFFFFFFFB0
4FFE00000000
4FFE33331000
4FFFFFFFD000
4FFFFFFFF000
4FFFFFFFB000
4FFE00000000
4FFE33333310
4FFFFFFFFFD0
4FFFFFFFFFF0
1DFFFFFFFFB0
ENDCHAR
STARTCHAR F
ENCODING 70
SWIDTH 637 0
DWIDTH 11 0
BBX 11 14 0 0
BITMAP
013333333310
2FFFFFFFFFC0
4FFFFFFFFFF0
4FFFFFFFFFA0
4FFE00000000
4FFE33331000
4FFFFFFFD000
4FFFFFFFF000
4FFFFFFFB000
4FFE00000000
4FFE00000000
4FFE00000000
4FFD00000000
1DF900000000
ENDCHAR
STARTCHAR G
ENCODING 71
SWIDTH 714 0
DWIDTH 13 0
BBX 13 15 0 -1
BITMAP
00000356410000
0004DFFFFE7000
007FFFFFFFF900
05FFFFDCFFF700
1EFFD300188000
5FFF2000000000
7FFB006EEEEB00
8FFA009FFFFF20
6FFD004ABFFF20
3FFF60001FFF20
0BFFF8214FFF20
02EFFFFFFFFF10
004EFFFFFFFA00
00029EFFFD6000
00000022100000
ENDCHAR
STARTCHAR H
ENCODING 72
SWIDTH 699 0
DWIDTH 13 0
BBX 12 14 0 0
BITMAP
012000000120
2EFB00003FFB
4FFE00005FFD
4FFE00005FFD
4FFE00005FFD
4FFE00005FFD
4FFFEEEEEFFD
4FFFFFFFFFFD
4FFFBBBBCFFD
4FFE00005FFD
4FFE00005FFD
4FFE00005FFD
4FFD00005FFD
1DE900002DE8
ENDCHAR
STARTCHAR I
ENCODING 73
SWIDTH 257 0
DWIDTH 5 0
BBX 4 14 0 0
BITMAP
0120
2EFB
4FFE
4FFE
4FFE
4FFE
4FFE
4FFE
4FFE
4FFE
4FFE
4FFE
4FFD
1DF9
ENDCHAR
STARTCHAR J
ENCODING 74
SWIDTH 549 0
DWIDTH 10 0
BBX 10 15 0 -1
BITMAP
0000000210
000000CFE1
000000FFF2
000000FFF2
000000FFF2
000000FFF2
000000FFF2
000000FFF2
000000FFF2
011001FFF2
3EE518FFF0
AFFFFFFFA0
4FFFFFFD10
03CFFFA100
0001210000
ENDCHAR
STARTCHAR K
ENCODING 75
SWIDTH 639 0
DWIDTH 12 0
BBX 11 15 0 -1
BITMAP
012000003300
2EFB0004FF60
4FFE003EFFC0
4FFE02EFFF30
4FFE1DFFF500
4FFEBFFF5000
4FFFFFF50000
4FFFFFA00000
4FFFFFF80000
4FFE9FFF8000
4FFE0AFFF700
4FFE01CFFF60
4FFD001DFFC0
1DF90002DE40
000000001100
ENDCHAR
STARTCHAR L
ENCODING 76
SWIDTH 587 0
DWIDTH 11 0
BBX 11 14 0 0
BITMAP
012000000000
2EFB00000000
4FFE00000000
4FFE00000000
4FFE00000000
4FFE00000000
4FFE00000000
4FFE00000000
4FFE00000000
4FFE00000000
4FFE00000000
4FFFAAAAA700
4FFFFFFFFF10
1DFFFFFFFC00
ENDCHAR
STARTCHAR M
ENCODING 77
SWIDTH 870 0
DWIDTH 16 0
BBX 15 14 0 0
BITMAP
0120000000001200
2EFC10000004EFB0
4FFFA000002EFFE0
4FFFF60000CFFFE0
4FFFFF3008FFFFE0
4FFFFFD15FFFFFE0
4FFEEFFBEFFDFFE0
4FFD4FFFFFD4FFE0
4FFD08FFFF34FFE0
4FFD00CFF704FFE0
4FFD00186004FFE0
4FFD00000004FFE0
4FFD00000004FFE0
1CE800000001CE90
ENDCHAR
STARTCHAR N
ENCODING 78
SWIDTH 720 0
DWIDTH 13 0
BBX 13 14 0 0
BITMAP
01200000002100
2EFC10000BFE10
4FFFA0000EFF30
4FFFF6000EFF40
4FFFFE200EFF40
4FFFFFC10EFF40
4FFEEFF90EFF40
4FFD5FFF5EFF40
4FFD09FFEFFF40
4FFD00CFFFFF40
4FFD002EFFFF40
4FFD0005FFFF40
4FFD00009FFF30
1DE900000BFC10
ENDCHAR
STARTCHAR O
ENCODING 79
SWIDTH 775 0
DWIDTH 14 0
BBX 14 15 0 -1
BITMAP
00000255200000
0004CFFFFC4000
007FFFFFFFF600
05FFFFEEFFFF40
0DFFD4005EFFD0
4FFF300003FFF3
7FFB000000CFF6
8FFA000000BFF7
7FFC000000DFF6
4FFF400004FFF2
0DFFE6116EFFC0
04FFFFFFFFFF30
005FFFFFFFF500
0003BFFFFB3000
00000133100000
ENDCHAR
STARTCHAR P
ENCODING 80
SWIDTH 632 0
DWIDTH 11 0
BBX 11 14 0 0
BITMAP
013333200000
2EFFFFFE8000
4FFFFFFFFB00
4FFFFFFFFF60
4FFE001AFFC0
4FFE0004FFD0
4FFE0009FFC0
4FFFCCEFFF80
4FFFFFFFFD10
4FFFFFFFA100
4FFE55520000
4FFE00000000
4FFD00000000
1DE900000000
ENDCHAR
STARTCHAR Q
ENCODING 81
SWIDTH 830 0
DWIDTH 15 0
BBX 15 15 0 -1
BITMAP
0000025520000000
0004CFFFFC400000
007FFFFFFFF60000
05FFFFEEFFFF4000
0DFFD4005EFFD000
4FFF300003FFF300
7FFB000000CFF600
8FFA000000BFF700
7FFC000000DFF600
4FFF400004FFF200
0DFFE6116EFFE200
04FFFFFFFFFFFE40
005FFFFFFFFFFF80
0003AFFFFA36EE20
0000013310001100
ENDCHAR
STARTCHAR R
ENCODING 82
SWIDTH 631 0
DWIDTH 11 0
BBX 12 14 0 0
BITMAP
013333200000
2EFFFFFE8100
4FFFFFFFFC00
4FFFFFFFFF70
4FFE001AFFC0
4FFE0004FFE0
4FFE0008FFD0
4FFFCCDFFF80
4FFFFFFFFD10
4FFFFFFFFC00
4FFE556FFF40
4FFE000CFFA0
4FFD0005FFF1
1DE90000DE80
ENDCHAR
STARTCHAR S
ENCODING 83
SWIDTH 583 0
DWIDTH 11 0
BBX 10 15 0 -1
BITMAP
0002564000
01AFFFFE60
0AFFFFFFF3
2FFFB9EFD1
4FFE002720
3FFF830000
0CFFFFEA30
02CFFFFFF5
00049DFFFC
0460006FFF
4FFA105FFF
6FFFECFFFB
0BFFFFFFE2
007EFFFA20
0000120000
ENDCHAR
STARTCHAR T
ENCODING 84
SWIDTH 731 0
DWIDTH 13 0
BBX 13 14 0 0
BITMAP
03333333333310
9FFFFFFFFFFFC0
AFFFFFFFFFFFC0
26666FFF766630
00000FFF200000
00000FFF200000
00000FFF200000
00000FFF200000
00000FFF200000
00000FFF200000
00000FFF200000
00000FFF200000
00000FFF200000
00000AFC000000
ENDCHAR
STARTCHAR U
ENCODING 85
SWIDTH 726 0
DWIDTH 13 0
BBX 13 15 0 -1
BITMAP
01310000003100
2FFB00000AFF30
4FFE00000DFF50
4FFE00000DFF50
4FFE00000DFF50
4FFE00000DFF50
4FFE00000DFF50
4FFE00000DFF50
3FFF00000EFF40
1FFF50004FFF20
0BFFD303DFFC00
04FFFFFFFFF400
007FFFFFFF8000
0005CFFFD50000
00000232000000
ENDCHAR
STARTCHAR V
ENCODING 86
SWIDTH 783 0
DWIDTH 14 0
BBX 14 14 0 0
BITMAP
01300000000320
5FF40000004FF7
AFFC000000BFFB
3FFF400002FFF5
0BFFA00009FFC0
03FFF2001FFF50
00BFF9008FFC00
004FFF11EFF500
000BFF87FFD000
0004FFEDFF5000
0000CFFFFD0000
00004FFFF60000
00000CFFD00000
000003DD400000
ENDCHAR
STARTCHAR W
ENCODING 87
SWIDTH 999 0
DWIDTH 18 0
BBX 18 14 0 0
BITMAP
013000001100000320
7FF50004FF40005FF6
AFFA000BFFB000BFF9
5FFE101FFFF101FFF4
0EFF506FFFF606FFE0
0AFFA0BFFFFB0AFF90
04FFE2FFFFFF2FFF40
00EFFBFFCCFFBFFE00
009FFFFF77FFFFF900
004FFFFF22FFFFF300
000DFFFB00CFFFD000
0008FFF6007FFF8000
0003FFF1002FFF3000
00009E700008E90000
ENDCHAR
STARTCHAR X
ENCODING 88
SWIDTH 741 0
DWIDTH 13 0
BBX 13 15 0 -1
BITMAP
04600000003600
5FF8000003EFA0
9FFF60002EFFE0
1DFFF401DFFF50
02EFFE3CFFF600
003EFFFFFF7000
0004FFFFF90000
0000BFFFF20000
0008FFFFFD1000
007FFFCFFFC100
06FFFC17FFFB00
4FFFD1009FFF90
AFFE20000BFFF0
2DE4000001CF60
00100000000100
ENDCHAR
STARTCHAR Y
ENCODING 89
SWIDTH 686 0
DWIDTH 12 0
BBX 12 14 0 0
BITMAP
024000000240
5FF600001EFA
AFFE1000AFFE
2EFFA004FFF7
07FFF41DFFC0
00CFFD9FFF20
002EFFFFF700
0007FFFFC000
0000BFFF2000
00006FFC0000
00006FFC0000
00006FFC0000
00006FFC0000
00003EF70000
ENDCHAR
STARTCHAR Z
ENCODING 90
SWIDTH 643 0
DWIDTH 12 0
BBX 12 14 0 0
BITMAP
023333333200
5FFFFFFFFF80
8FFFFFFFFFC0
3DEEEEFFFF60
000003FFFB00
00001DFFE100
00009FFF4000
0005FFF80000
002EFFC00000
00CFFE200000
08FFF7111100
3FFFFFFFFFD0
7FFFFFFFFFF1
2DFFFFFFFFC0
ENDCHAR
STARTCHAR bracketleft
ENCODING 91
SWIDTH 348 0
DWIDTH 6 0
BBX 6 19 0 -5
BITMAP
1CEEEB
4FFFFF
4FFDA7
4FFA00
4FFA00
4FFA00
4FFA00
4FFA00
4FFA00
4FFA00
4FFA00
4FFA00
4FFA00
4FFA00
4FFA00
4FFC85
4FFFFE
2EFFFD
001110
ENDCHAR
STARTCHAR backslash
ENCODING 92
SWIDTH 528 0
DWIDTH 10 0
BBX 10 15 0 -1
BITMAP
4DE1000000
AFF8000000
4FFE100000
0CFF800000
05FFE10000
00CFF70000
005FFE1000
000DFF7000
0006FFD000
0000DFF600
00007FFD00
00001EFF50
000007FFC0
000001EFF2
0000007E90
ENDCHAR
STARTCHAR bracketright
ENCODING 93
SWIDTH 348 0
DWIDTH 6 0
BBX 6 19 0 -5
BITMAP
7DEED3
BFFFF8
5ACFF8
006FF8
006FF8
006FF8
006FF8
006FF8
006FF8
006FF8
006FF8
006FF8
006FF8
006FF8
006FF8
38BFF8
BFFFF8
9FFFF5
011100
ENDCHAR
STARTCHAR asciicircum
ENCODING 94
SWIDTH 526 0
DWIDTH 9 0
BBX 9 6 0 4
BITMAP
0002B60000
002DFF7000
02DFFFF700
1DFF9EFF60
2FF802EF80
0360002700
ENDCHAR
STARTCHAR underscore
ENCODING 95
SWIDTH 826 0
DWIDTH 15 0
BBX 15 4 0 -5
BITMAP
2566666666666510
AFFFFFFFFFFFFF80
9FFFFFFFFFFFFF70
0122222222222100
ENDCHAR
STARTCHAR grave
ENCODING 96
SWIDTH 482 0
DWIDTH 9 0
BBX 6 4 1 10
BITMAP
0BB620
3FFFFC
1AFFFE
001596
ENDCHAR
STARTCHAR a
ENCODING 97
SWIDTH 596 0
DWIDTH 11 0
BBX 10 10 0 0
BITMAP
0003650473
00AFFFDFFE
0AFFFFFFFF
3FFFDBFFFF
7FFC008FFF
8FFA005FFF
5FFF64CFFF
1EFFFFFFFF
04FFFFFFFF
003BEC5CEA
ENDCHAR
STARTCHAR b
ENCODING 98
SWIDTH 592 0
DWIDTH 11 0
BBX 11 14 0 0
BITMAP
1BD700000000
4FFD00000000
4FFD00000000
4FFD00000000
4FFD26610000
4FFEEFFE6000
4FFFFFFFF400
4FFFEBEFFD00
4FFF303FFF20
4FFE000FFF30
4FFF93AFFF10
4FFFFFFFF900
4FFFFFFFC100
1DE99DE91000
ENDCHAR
STARTCHAR c
ENCODING 99
SWIDTH 517 0
DWIDTH 9 0
BBX 9 11 0 -1
BITMAP
0003786100
01AFFFFE60
0AFFFFFFC0
3FFFDAEF50
7FFD101300
8FFB000000
5FFF638910
1EFFFFFF90
04FFFFFFA0
003AFFE810
0000010000
ENDCHAR
STARTCHAR d
ENCODING 100
SWIDTH 598 0
DWIDTH 11 0
BBX 11 14 0 0
BITMAP
0000000AD900
0000001FFF10
0000002FFF10
0000002FFF10
0003652FFF10
009FFFDFFF10
08FFFFFFFF10
2FFFDBFFFF10
6FFD106FFF10
6FFB003FFF10
4FFF73CFFF10
0DFFFFFFFF10
03EFFFFFFF10
002AED6CEA00
ENDCHAR
STARTCHAR e
ENCODING 101
SWIDTH 573 0
DWIDTH 10 0
BBX 10 11 0 -1
BITMAP
00049A9500
01BFFFFFA0
0BFFFFFFF7
4FFF939FFC
7FFE559FFC
8FFFFFFFF7
6FFE544430
1FFFD89CC1
06FFFFFFF5
005DFFFFB1
0000233100
ENDCHAR
STARTCHAR f
ENCODING 102
SWIDTH 450 0
DWIDTH 8 0
BBX 8 14 0 0
BITMAP
0005CED2
004FFFF5
00CFFFF3
01FFF520
16FFF772
AFFFFFFB
AFFFFFFC
4AFFFAA4
01FFF100
01FFF100
01FFF100
01FFF100
01FFF100
00BFB000
ENDCHAR
STARTCHAR g
ENCODING 103
SWIDTH 585 0
DWIDTH 11 0
BBX 10 15 0 -5
BITMAP
0004740673
01BFFFDFFB
0AFFFFFFFC
3FFFBAFFFC
7FFB009FFC
8FF9007FFC
5FFF87EFFC
0DFFFFFFFC
02DFFFFFFC
0018A86FFC
008600AFFA
08FFEDFFF5
08FFFFFFA0
006CFFD600
0000010000
ENDCHAR
STARTCHAR h
ENCODING 104
SWIDTH 605 0
DWIDTH 11 0
BBX 11 14 0 0
BITMAP
1BD700000000
4FFD00000000
4FFD00000000
4FFD00000000
4FFD16620000
4FFEDFFF8000
4FFFFFFFF600
4FFFEBEFFD00
4FFF203FFF10
4FFD000FFF30
4FFD000FFF30
4FFD000FFF30
4FFD000FFF20
1DE8000AFC10
ENDCHAR
STARTCHAR i
ENCODING 105
SWIDTH 255 0
DWIDTH 5 0
BBX 4 14 0 0
BITMAP
1BD7
4FFD
2FFB
0231
0572
3FFC
4FFD
4FFD
4FFD
4FFD
4FFD
4FFD
4FFD
1DE8
ENDCHAR
STARTCHAR j
ENCODING 106
SWIDTH 252 0
DWIDTH 5 0
BBX 7 18 -3 -4
BITMAP
0001BD70
0004FFC0
0002FFA0
00001300
00006830
0003FFB0
0004FFC0
0004FFC0
0004FFC0
0004FFC0
0004FFC0
0004FFC0
0004FFC0
0005FFC0
002BFFA0
2EFFFF50
5FFFFA00
3FFD6000
ENDCHAR
STARTCHAR k
ENCODING 107
SWIDTH 536 0
DWIDTH 10 0
BBX 10 15 0 -1
BITMAP
1CE8000000
4FFD000000
4FFD000000
4FFD000000
4FFD000000
4FFD03DD20
4FFD4EFFA0
4FFEFFFF50
4FFFFFE400
4FFFFFA000
4FFFFFFB10
4FFD9FFFD1
4FFD09FFF4
1DE8007FA0
0000000100
ENDCHAR
STARTCHAR l
ENCODING 108
SWIDTH 327 0
DWIDTH 6 0
BBX 6 14 0 0
BITMAP
1CE800
4FFD00
4FFD00
4FFD00
4FFD00
4FFD00
4FFD00
4FFD00
4FFD00
4FFD00
4FFE10
3FFFF6
0EFFF9
04CFF6
ENDCHAR
STARTCHAR m
ENCODING 109
SWIDTH 851 0
DWIDTH 15 0
BBX 15 10 0 0
BITMAP
0572176100573000
3FFCDFFE4CFFF700
4FFFFFFFFFFFFF20
4FFFDDFFFEBFFF60
4FFF11FFF50AFF80
4FFD00EFF408FF90
4FFD00EFF408FF90
4FFD00EFF408FF90
4FFD00EFF408FF90
1DE9009ED104EE50
ENDCHAR
STARTCHAR n
ENCODING 110
SWIDTH 606 0
DWIDTH 11 0
BBX 11 10 0 0
BITMAP
057316630000
3FFDDFFF8000
4FFFFFFFF600
4FFFEAEFFD00
4FFF203FFF20
4FFD000FFF30
4FFD000FFF30
4FFD000FFF30
4FFD000FFF30
1DE8000AEC10
ENDCHAR
STARTCHAR o
ENCODING 111
SWIDTH 600 0
DWIDTH 11 0
BBX 11 11 0 -1
BITMAP
00049A830000
01BFFFFF8000
0AFFFFFFF700
3FFFB8DFFF10
7FFC001EFF40
8FFA000EFF50
5FFF417FFF20
1EFFFFFFFB00
04FFFFFFE200
003BFFFA2000
000012000000
ENDCHAR
STARTCHAR p
ENCODING 112
SWIDTH 582 0
DWIDTH 10 0
BBX 10 15 0 -5
BITMAP
0572266100
3FFDEFFE40
4FFFFFFFF3
4FFFDAEFFB
4FFF104FFE
4FFE002FFF
4FFFA5CFFC
4FFFFFFFF5
4FFFFFFF80
4FFC6AA500
4FFC000000
4FFC000000
4FFC000000
2EF9000000
0010000000
ENDCHAR
STARTCHAR q
ENCODING 113
SWIDTH 582 0
DWIDTH 10 0
BBX 10 15 0 -5
BITMAP
0004640672
01BFFFCFFA
0AFFFFFFFB
3FFFCBFFFB
7FFB009FFB
8FF9007FFB
5FFF76EFFB
0DFFFFFFFB
03EFFFFFFB
0018B97FFB
0000005FFB
0000005FFB
0000005FFB
0000002EF8
0000000010
ENDCHAR
STARTCHAR r
ENCODING 114
SWIDTH 457 0
DWIDTH 8 0
BBX 8 10 0 0
BITMAP
05732782
3FFDEFFD
4FFFFFFC
4FFFB8B4
4FFE0000
4FFD0000
4FFD0000
4FFD0000
4FFD0000
2DE90000
ENDCHAR
STARTCHAR s
ENCODING 115
SWIDTH 489 0
DWIDTH 9 0
BBX 9 11 0 -1
BITMAP
0048A95000
09FFFFFC00
1FFFDEFA00
3FFC204100
1EFFFEA200
06FFFFFE10
0237BFFF40
2FE96CFF50
7FFFFFFE10
17DFFFC400
0001210000
ENDCHAR
STARTCHAR t
ENCODING 116
SWIDTH 449 0
DWIDTH 8 0
BBX 8 13 0 0
BITMAP
007A7000
01FFF100
01FFF100
27FFF772
AFFFFFFB
BFFFFFFB
4AFFFAA4
01FFF100
01FFF100
01FFF200
00EFFFD2
009FFFF4
0007DFD2
ENDCHAR
STARTCHAR u
ENCODING 117
SWIDTH 606 0
DWIDTH 11 0
BBX 11 10 0 0
BITMAP
057300037500
3FFC000EFF20
4FFD000FFF30
4FFD000FFF30
4FFD000FFF30
4FFE000FFF30
2FFF839FFF30
0CFFFFFFFF30
03EFFFFFFF30
003AED59EC10
ENDCHAR
STARTCHAR v
ENCODING 118
SWIDTH 638 0
DWIDTH 11 0
BBX 12 10 0 0
BITMAP
068000004820
8FF70001EFE1
8FFE1008FFE1
1EFF801EFF80
07FFE19FFD10
00DFFAFFF500
004FFFFFB000
000AFFFF3000
0002FFF90000
00006FC10000
ENDCHAR
STARTCHAR w
ENCODING 119
SWIDTH 793 0
DWIDTH 14 0
BBX 14 10 0 0
BITMAP
16700046000571
9FF604FF802FFD
8FFC0BFFE08FFC
2FFF4FFFF5DFF6
0BFFDFFFFDFFE1
05FFFFFFFFFF90
00DFFFEAFFFF30
007FFF94FFFC00
001FFF30DFF600
0007FA005FB000
ENDCHAR
STARTCHAR x
ENCODING 120
SWIDTH 567 0
DWIDTH 10 0
BBX 10 10 0 0
BITMAP
0660000470
6FF9006FFA
9FFF96FFFC
1CFFFFFFD2
01CFFFFD20
006FFFF900
05FFFFFF80
4FFFECFFF7
AFFE21CFFD
2DD2001BE4
ENDCHAR
STARTCHAR y
ENCODING 121
SWIDTH 604 0
DWIDTH 11 0
BBX 11 15 0 -5
BITMAP
079000018500
8FF80009FF70
7FFF201EFF60
0DFFB07FFE00
05FFF5EFF700
00BFFFFFE100
002FFFFF9000
0008FFFF2000
0001EFFB0000
0002FFF40000
0009FFC00000
001EFF500000
006FFD000000
003EF7000000
000030000000
ENDCHAR
STARTCHAR z
ENCODING 122
SWIDTH 586 0
DWIDTH 11 0
BBX 11 10 0 0
BITMAP
057777776100
1FFFFFFFFA00
2FFFFFFFFB00
07AABFFFE300
0002DFFD2000
003EFFC10000
04EFFD332100
3FFFFFFFFD00
7FFFFFFFFF10
2DFFFFFFFC00
ENDCHAR
STARTCHAR braceleft
ENCODING 123
SWIDTH 381 0
DWIDTH 7 0
BBX 7 18 0 -4
BITMAP
0004BD50
003FFF80
008FFA30
00AFE000
00AFE000
00AFE000
00AFE000
14DFC000
AFFF5000
AFFF4000
26EFB000
00AFD000
00AFE000
00AFE000
00AFE000
008FF820
003FFF80
0006EF60
ENDCHAR
STARTCHAR bar
ENCODING 124
SWIDTH 217 0
DWIDTH 4 0
BBX 4 19 0 -5
BITMAP
1CC1
4FF3
4FF3
4FF3
4FF3
4FF3
4FF3
4FF3
4FF3
4FF3
4FF3
4FF3
4FF3
4FF3
4FF3
4FF3
4FF3
2FF1
0110
ENDCHAR
STARTCHAR braceright
ENCODING 125
SWIDTH 381 0
DWIDTH 7 0
BBX 7 18 0 -4
BITMAP
7DB30000
BFFE1000
4BFF6000
01FF7000
01FF8000
01FF8000
01FF8000
00EFC300
007FFF70
006FFF80
00DFD610
01FF8000
01FF7000
01FF7000
01FF7000
39FF6000
AFFE2000
8FD40000
ENDCHAR
STARTCHAR asciitilde
ENCODING 126
SWIDTH 651 0
DWIDTH 12 0
BBX 11 5 0 2
BITMAP
004AB812B600
07FFFFDDFF30
1FFFFFFFFD10
09F72BFFB200
001000110000
ENDCHAR
STARTCHAR exclamdown
ENCODING 161
SWIDTH 268 0
DWIDTH 5 0
BBX 5 15 0 -5
BITMAP
012100
2EFD00
4FFF10
2EFD00
013100
046300
2FFE00
3FFF00
3FFF00
3FFF00
3FFF00
3FFF00
3FFF00
1EFC00
001000
ENDCHAR
STARTCHAR cent
ENCODING 162
SWIDTH 434 0
DWIDTH 8 0
BBX 8 14 0 -2
BITMAP
0007E400
000AF600
000AF700
008EFE80
0BFFFFF4
4FFD9DC0
7FF30000
7FF50320
3FFFDFE2
07FFFFF3
004DFC40
000AF700
0009F600
00026100
ENDCHAR
STARTCHAR sterling
ENCODING 163
SWIDTH 675 0
DWIDTH 12 0
BBX 12 14 0 0
BITMAP
000001331000
00019EFFFB30
001DFFFFFFF3
009FFFCCEFF7
00EFF4001A91
01FFD0000000
4AFFEAA50000
BFFFFFFC0000
5BDFFDB60000
006FF8000000
008FF7000000
02EFFEEEEEE8
08FFFFFFFFFD
03EFFFFFFFF9
ENDCHAR
STARTCHAR currency
ENCODING 164
SWIDTH 677 0
DWIDTH 12 0
BBX 12 14 0 0
BITMAP
2B80000005B3
6FF732235EFA
1EFFFFFFFFF3
04FFFFFFFF70
0AFFD88CFFD0
0FFD0000BFF3
2FF900006FF5
2FF900006FF5
0FFD0000AFF3
0AFFC77BFFD0
04FFFFFFFF70
1DFFFFFFFFE2
7FF732236EF9
2B90000006C3
ENDCHAR
STARTCHAR yen
ENCODING 165
SWIDTH 677 0
DWIDTH 12 0
BBX 12 14 0 0
BITMAP
012000000220
4EF400002EF6
AFFD1000BFFD
3FFF8005FFF6
08FFF31DFFB0
00CFFC9FFE20
003FFFFFF500
005CFFFFE700
00FFFFFFFF40
0057BFFC7600
0035AFFC5500
00FFFFFFFF30
0068BFFD8810
00003EE50000
ENDCHAR
STARTCHAR brokenbar
ENCODING 166
SWIDTH 215 0
DWIDTH 4 0
BBX 4 18 0 -4
BITMAP
1CB0
4FF2
4FF2
4FF2
4FF2
4FF2
4FF2
3FF1
0320
0110
2FE1
4FF2
4FF2
4FF2
4FF2
4FF2
4FF2
2ED1
ENDCHAR
STARTCHAR section
ENCODING 167
SWIDTH 560 0
DWIDTH 10 0
BBX 10 18 0 -4
BITMAP
003ACC9400
05FFFFFF80
1EFFFFFFC0
4FFD22AD30
3FFD200000
1EFFFC8300
09FFFFFFA0
1EFFFFFFF5
4FFD12BFF8
4FFE309FF8
1EFFFDFFF5
04EFFFFFE0
0017BFFFF5
034001AFF8
4FF8009FF8
6FFFEDFFF4
0BFFFFFFA0
007DFFC600
ENDCHAR
STARTCHAR dieresis
ENCODING 168
SWIDTH 489 0
DWIDTH 9 0
BBX 9 4 0 10
BITMAP
1BD802CD60
4FFE06FFC0
2FFC04FFA0
0241003410
ENDCHAR
STARTCHAR copyright
ENCODING 169
SWIDTH 711 0
DWIDTH 13 0
BBX 13 13 0 1
BITMAP
00004676300000
006EFFFFFD4000
07FB52226DF400
1EB06EFD51DC00
5F46FFDFC07F20
7F1DF302104F40
8F0FE000004F50
7F1CF504304F40
4F55FFFFC08F10
0EC14BDB42EB00
05FD75458EE300
004CFFFFFB2000
00001343100000
ENDCHAR
STARTCHAR ordfeminine
ENCODING 170
SWIDTH 445 0
DWIDTH 8 0
BBX 8 7 0 6
BITMAP
019C89B2
0CFFFFF4
5FF8BFF4
8FB01FF4
5FF79FF4
0DFFFFF4
02BEAAD2
ENDCHAR
STARTCHAR guillemotleft
ENCODING 171
SWIDTH 668 0
DWIDTH 12 0
BBX 12 10 0 0
BITMAP
000042000140
0007FE202EF6
007FFF32EFF8
07FFF52EFFA0
6FFF51EFFA00
AFFC04FFF300
2DFFB0AFFE30
02DFFB1AFFE3
002DFF40AFFA
0002C90009D2
ENDCHAR
STARTCHAR logicalnot
ENCODING 172
SWIDTH 526 0
DWIDTH 9 0
BBX 10 6 0 2
BITMAP
6EEEEEEEC1
BFFFFFFFF3
8FFFFFFFF3
0233335FF3
0000003FF3
0000001AA0
ENDCHAR
STARTCHAR registered
ENCODING 174
SWIDTH 711 0
DWIDTH 13 0
BBX 13 13 0 1
BITMAP
00004676300000
006EFFFFFD4000
07FB54326DF400
1EB0DFFE51DC00
5F40FFBFF17F20
7F10FD0BF34F40
8F00FFEFE14F50
7F10FFEFB05F40
4F50FD0CF28F10
0EC18704A4EB00
05FD75459EE300
004CFFFFFB2000
00001343100000
ENDCHAR
STARTCHAR degree
ENCODING 176
SWIDTH 407 0
DWIDTH 7 0
BBX 7 7 0 7
BITMAP
018CA300
0CFFFF30
5FD5AFA0
7F804FC0
5FE7CFA0
0BFFFE20
00698100
ENDCHAR
STARTCHAR plusminus
ENCODING 177
SWIDTH 505 0
DWIDTH 9 0
BBX 9 10 0 0
BITMAP
0006B70000
000CFD0000
3BCEFFCB40
8FFFFFFF90
5DEFFFEE60
000CFD0000
0007C70000
0677777600
4FFFFFFF50
2DFFFFFE30
ENDCHAR
STARTCHAR twosuperior
ENCODING 178
SWIDTH 455 0
DWIDTH 8 0
BBX 8 11 0 3
BITMAP
00377300
06FFFF70
2FFFFFF3
7FF65FF8
7FF14FF8
1536EFF3
02BFFF70
2EFFFC84
7FFFFFFD
4FFFFFFC
01222220
ENDCHAR
STARTCHAR threesuperior
ENCODING 179
SWIDTH 457 0
DWIDTH 8 0
BBX 8 11 0 3
BITMAP
00267400
05EFFFA0
1EFFFFF5
1DF42FF8
0126BFF4
000DFFE3
3B836EFA
7FF74EFA
2FFFFFF5
05EFFE70
00033000
ENDCHAR
STARTCHAR acute
ENCODING 180
SWIDTH 605 0
DWIDTH 11 0
BBX 6 4 2 10
BITMAP
0038C8
2DFFFE
3FFFE8
098400
ENDCHAR
STARTCHAR mu
ENCODING 181
SWIDTH 601 0
DWIDTH 11 0
BBX 11 14 0 -4
BITMAP
057200047400
3FFC000FFF10
4FFD000FFF10
4FFD000FFF10
4FFD000FFF10
4FFE001FFF10
4FFF84AFFF10
4FFFFFFFFF10
4FFFFFFFFF10
4FFEBC59DA00
4FFD00000000
4FFD00000000
4FFD00000000
1CE800000000
ENDCHAR
STARTCHAR paragraph
ENCODING 182
SWIDTH 614 0
DWIDTH 11 0
BBX 10 16 0 -5
BITMAP
09EFFFFFFC
4FFFFFCDFF
7FFFFF37FF
6FFFFF37FF
4FFFFF37FF
0BFFFF37FF
0026FF37FF
0004FF37FF
0004FF37FF
0004FF37FF
0004FF37FF
0004FF37FF
0004FF37FF
0004FF37FF
0002FF15FD
0000110021
ENDCHAR
STARTCHAR periodcentered
ENCODING 183
SWIDTH 237 0
DWIDTH 4 0
BBX 4 5 0 3
BITMAP
0230
6FFA
8FFC
5FF9
0110
ENDCHAR
STARTCHAR cedilla
ENCODING 184
SWIDTH 559 0
DWIDTH 10 0
BBX 4 5 3 -4
BITMAP
3750
BFF6
45FA
BFF5
2640
ENDCHAR
STARTCHAR onesuperior
ENCODING 185
SWIDTH 321 0
DWIDTH 6 0
BBX 6 11 0 3
BITMAP
000530
01AFF0
1CFFF1
AFFFF1
6FFFF1
019FF1
009FF1
009FF1
009FF1
007FE0
000100
ENDCHAR
STARTCHAR ordmasculine
ENCODING 186
SWIDTH 439 0
DWIDTH 8 0
BBX 8 8 0 5
BITMAP
006AA500
0AFFFF90
5FF9AFF3
8FC00DF6
7FE33EF5
2EFFFFE1
03CFFC30
00022000
ENDCHAR
STARTCHAR guillemotright
ENCODING 187
SWIDTH 669 0
DWIDTH 12 0
BBX 12 10 0 0
BITMAP
042000240000
6FE302EF7000
8FFE33FFF700
0AFFE35FFF70
00AFFE25FFF6
003FFF40BFFA
03EFFA0AFFE2
3EFFA1AFFE20
AFFA03FFE200
2C90009C2000
ENDCHAR
STARTCHAR onequarter
ENCODING 188
SWIDTH 786 0
DWIDTH 14 0
BBX 13 15 1 -1
BITMAP
03B60000D90000
4EFA0007F50000
EFFA001EC00000
8CFA007F400000
06FA01EB000000
06FA08F3000000
06FA2FA3716700
02A59F3BF5FF10
0002FA0EF2FF10
000AF23FE1FF10
003F907FFFFF10
00BE104DDDFF10
04F8000000FF10
0BE1000000CD00
04400000000000
ENDCHAR
STARTCHAR onehalf
ENCODING 189
SWIDTH 804 0
DWIDTH 14 0
BBX 13 15 1 -1
BITMAP
03B60000D90000
4EFA0007F50000
EFFA001EC00000
8CFA007F400000
06FA01EB000000
06FA08F3000000
06FA2FA1795000
02A59F3DFFF700
0002FA6FE9FE00
000AF27F82FF10
003F90035DFB00
00BE100AFFC200
04F8006FFFFF40
0BE1004EFFFF40
04400000000000
ENDCHAR
STARTCHAR threequarters
ENCODING 190
SWIDTH 842 0
DWIDTH 15 0
BBX 15 15 0 -1
BITMAP
007CB40000D90000
08FFFF3007F50000
09F4BF701EC00000
001AEF307F400000
032BEF61EB000000
1FE28FA8F3000000
0BFFFF7FA3717700
019DC69F3BF6FF10
000002FA0EF3FF10
00000AF23FE2FF10
00003F906FFFFF10
0000BE104DDDFF10
0004F8000000FF10
000BE1000000CD00
0004400000000000
ENDCHAR
STARTCHAR questiondown
ENCODING 191
SWIDTH 511 0
DWIDTH 9 0
BBX 9 14 0 -4
BITMAP
0004860000
000EFF4000
000FFF5000
0007CA1000
0000000000
0007C90000
005EFF1000
09FFFD0000
4FFF910000
8FF6006820
7FF702FFD0
3FFFEFFFA0
09FFFFFE20
006CFEA200
ENDCHAR
STARTCHAR Agrave
ENCODING 192
SWIDTH 765 0
DWIDTH 14 0
BBX 14 19 0 -1
BITMAP
00002200000000
0001EFC7200000
0003FFFFF00000
00005AEFC00000
00000015200000
000005FE200000
00000EFFA00000
00006FFFF30000
0000DFFFFA0000
0006FFFFFF2000
000DFFADFF9000
005FFF36FFF200
00DFFE78FFF900
05FFFFFFFFFF20
0CFFFFFFFFFF90
4FFF533338FFE1
AFFB000001EFF6
4EF40000007FC2
00100000000200
ENDCHAR
STARTCHAR Aacute
ENCODING 193
SWIDTH 765 0
DWIDTH 14 0
BBX 14 19 0 -1
BITMAP
00000001640000
000007CFFE0000
00002FFFFE0000
00000DEA510000
00000121000000
000005FE200000
00000EFFA00000
00006FFFF30000
0000DFFFFA0000
0006FFFFFF2000
000DFFADFF9000
005FFF36FFF200
00DFFE78FFF900
05FFFFFFFFFF20
0CFFFFFFFFFF90
4FFF533338FFE1
AFFB000001EFF6
4EF40000007FC2
00100000000200
ENDCHAR
STARTCHAR Acircumflex
ENCODING 194
SWIDTH 765 0
DWIDTH 14 0
BBX 14 19 0 -1
BITMAP
00000266100000
0004CFFFFB2000
0009FFFFFF6000
0002C934BB1000
00000011000000
000005FE200000
00000EFFA00000
00006FFFF30000
0000DFFFFA0000
0006FFFFFF2000
000DFFADFF9000
005FFF36FFF200
00DFFE78FFF900
05FFFFFFFFFF20
0CFFFFFFFFFF90
4FFF533338FFE1
AFFB000001EFF6
4EF40000007FC2
00100000000200
ENDCHAR
STARTCHAR Atilde
ENCODING 195
SWIDTH 765 0
DWIDTH 14 0
BBX 14 19 0 -1
BITMAP
00002760260000
0003EFFCDF5000
000AFEFFFE2000
0002A23AA30000
00000011000000
000005FE200000
00000EFFA00000
00006FFFF30000
0000DFFFFA0000
0006FFFFFF2000
000DFFADFF9000
005FFF36FFF200
00DFFE78FFF900
05FFFFFFFFFF20
0CFFFFFFFFFF90
4FFF533338FFE1
AFFB000001EFF6
4EF40000007FC2
00100000000200
ENDCHAR
STARTCHAR Adieresis
ENCODING 196
SWIDTH 765 0
DWIDTH 14 0
BBX 14 19 0 -1
BITMAP
00047400573000
001FFF13FFE000
001FFF13FFE000
0007A7008A6000
00000011000000
000005FE200000
00000EFFA00000
00006FFFF30000
0000DFFFFA0000
0006FFFFFF2000
000DFFADFF9000
005FFF36FFF200
00DFFE78FFF900
05FFFFFFFFFF20
0CFFFFFFFFFF90
4FFF533338FFE1
AFFB000001EFF6
4EF40000007FC2
00100000000200
ENDCHAR
STARTCHAR Aring
ENCODING 197
SWIDTH 765 0
DWIDTH 14 0
BBX 14 18 0 -1
BITMAP
00000276000000
00001ECDB00000
00006D02F20000
00004E46F10000
00000BFF700000
00000EFFA00000
00006FFFF30000
0000DFFFFA0000
0006FFFFFF2000
000DFFADFF9000
005FFF36FFF200
00CFFE78FFF900
05FFFFFFFFFF20
0CFFFFFFFFFF90
4FFF533338FFE1
AFFB000001EFF6
4EF40000007FC2
00100000000200
ENDCHAR
STARTCHAR AE
ENCODING 198
SWIDTH 1148 0
DWIDTH 21 0
BBX 21 15 0 -1
BITMAP
0000000000233333333100
0000000008FFFFFFFFFE10
000000007FFFFFFFFFFF30
00000005FFFFFFFFFFFC10
0000004FFFFFF200000000
000003EFFEFFF533310000
00002EFFF5FFFFFFFE1000
0002DFFF51FFFFFFFF3000
001CFFFB56FFFFFFFD1000
01BFFFFFFFFFF200000000
0AFFFFFFFFFFF533333100
9FFFA55555FFFFFFFFFE10
EFFB000000FFFFFFFFFF30
5FC10000008EFFFFFFFD10
0100000000000000000000
ENDCHAR
STARTCHAR Ccedilla
ENCODING 199
SWIDTH 679 0
DWIDTH 12 0
BBX 12 18 0 -4
BITMAP
000001453000
0003AFFFFE70
006FFFFFFFF9
06FFFFEDFFF9
0EFFD50029A1
4FFF30000000
7FFC00000000
8FFA00000000
7FFC00000000
3FFF50000000
0CFFF8214CD1
03EFFFFFFFF9
004EFFFFFFF7
00018DFFFB40
000005FF9000
0000017BE000
000005FFA000
000000550000
ENDCHAR
STARTCHAR Egrave
ENCODING 200
SWIDTH 638 0
DWIDTH 11 0
BBX 11 18 0 0
BITMAP
000031000000
0005FEA61000
0009FFFF9000
00017BFF7000
013333483310
2FFFFFFFFFD0
4FFFFFFFFFF0
4FFFFFFFFFB0
4FFE00000000
4FFE33331000
4FFFFFFFD000
4FFFFFFFF000
4FFFFFFFB000
4FFE00000000
4FFE33333310
4FFFFFFFFFD0
4FFFFFFFFFF0
1DFFFFFFFFB0
ENDCHAR
STARTCHAR Eacute
ENCODING 201
SWIDTH 638 0
DWIDTH 11 0
BBX 11 18 0 0
BITMAP
000000263000
00018CFFB000
0005FFFFC000
0001EE940000
013343333310
2FFFFFFFFFD0
4FFFFFFFFFF0
4FFFFFFFFFB0
4FFE00000000
4FFE33331000
4FFFFFFFD000
4FFFFFFFF000
4FFFFFFFB000
4FFE00000000
4FFE33333310
4FFFFFFFFFD0
4FFFFFFFFFF0
1DFFFFFFFFB0
ENDCHAR
STARTCHAR Ecircumflex
ENCODING 202
SWIDTH 638 0
DWIDTH 11 0
BBX 11 18 0 0
BITMAP
000027510000
005CFFFFA100
00AFFFFFF500
003C935BB000
013333333310
2FFFFFFFFFD0
4FFFFFFFFFF0
4FFFFFFFFFB0
4FFE00000000
4FFE33331000
4FFFFFFFD000
4FFFFFFFF000
4FFFFFFFB000
4FFE00000000
4FFE33333310
4FFFFFFFFFD0
4FFFFFFFFFF0
1DFFFFFFFFB0
ENDCHAR
STARTCHAR Edieresis
ENCODING 203
SWIDTH 638 0
DWIDTH 11 0
BBX 11 18 0 0
BITMAP
004740057300
01FFF13FFE00
01FFF13FFE00
007A7008A500
013333333310
2FFFFFFFFFD0
4FFFFFFFFFF0
4FFFFFFFFFB0
4FFE00000000
4FFE33331000
4FFFFFFFD000
4FFFFFFFF000
4FFFFFFFB000
4FFE00000000
4FFE33333310
4FFFFFFFFFD0
4FFFFFFFFFF0
1DFFFFFFFFB0
ENDCHAR
STARTCHAR Igrave
ENCODING 204
SWIDTH 267 0
DWIDTH 5 0
BBX 6 18 -1 0
BITMAP
130000
9FE940
CFFFF5
28DFF3
001550
01EFD0
03FFF0
03FFF0
03FFF0
03FFF0
03FFF0
03FFF0
03FFF0
03FFF0
03FFF0
03FFF0
03FFF0
01CFA0
ENDCHAR
STARTCHAR Iacute
ENCODING 205
SWIDTH 269 0
DWIDTH 5 0
BBX 6 18 0 0
BITMAP
000371
29DFF8
8FFFF9
4FD830
022100
1EFD00
3FFF00
3FFF00
3FFF00
3FFF00
3FFF00
3FFF00
3FFF00
3FFF00
3FFF00
3FFF00
2FFF00
0CFA00
ENDCHAR
STARTCHAR Icircumflex
ENCODING 206
SWIDTH 270 0
DWIDTH 5 0
BBX 8 18 -2 0
BITMAP
00047300
08EFFFD7
1FFFFFFE
07C727D6
00012100
001EFD00
003FFF00
003FFF00
003FFF00
003FFF00
003FFF00
003FFF00
003FFF00
003FFF00
003FFF00
003FFF00
002FFF00
000CFA00
ENDCHAR
STARTCHAR Idieresis
ENCODING 207
SWIDTH 268 0
DWIDTH 5 0
BBX 9 18 -2 0
BITMAP
1771027710
8FF90AFF70
8FF90AFF70
299303A920
0001210000
001EFD0000
002FFF1000
002FFF1000
002FFF1000
002FFF1000
002FFF1000
002FFF1000
002FFF1000
002FFF1000
002FFF1000
002FFF1000
002FFF1000
000CFB0000
ENDCHAR
STARTCHAR Eth
ENCODING 208
SWIDTH 775 0
DWIDTH 14 0
BBX 14 14 0 0
BITMAP
00133332000000
00DFFFFFEA2000
00FFFFFFFFE500
00FFFFFFFFFF40
00FFF3017EFFC0
00FFF30004FFF3
4CFFFD6000CFF6
8FFFFFA000BFF7
28FFFA4000DFF6
00FFF30007FFF2
00FFF535AFFFA0
00FFFFFFFFFD20
00FFFFFFFFD200
00AEFFFEC60000
ENDCHAR
STARTCHAR Ntilde
ENCODING 209
SWIDTH 720 0
DWIDTH 13 0
BBX 13 18 0 0
BITMAP
00005730530000
0008FFFBFE0000
001FFEFFFA0000
0006807B810000
01200000002100
2EFC10000BFE10
4FFFA0000EFF30
4FFFF6000EFF40
4FFFFE200EFF40
4FFFFFC10EFF40
4FFEEFF90EFF40
4FFD5FFF5EFF40
4FFD09FFEFFF40
4FFD00CFFFFF40
4FFD002EFFFF40
4FFD0005FFFF40
4FFD00009FFF30
1DE900000BFC10
ENDCHAR
STARTCHAR Ograve
ENCODING 210
SWIDTH 775 0
DWIDTH 14 0
BBX 14 19 0 -1
BITMAP
00002200000000
0000CFD8300000
0000FFFFF30000
000039DFE10000
00000258500000
0004CFFFFC4000
007FFFFFFFF600
05FFFFEEFFFF40
0DFFD4005EFFD0
4FFF300003FFF3
7FFB000000CFF6
8FFA000000BFF7
7FFC000000DFF6
4FFF400004FFF2
0DFFE6116EFFC0
04FFFFFFFFFF30
005FFFFFFFF500
0003BFFFFB3000
00000133100000
ENDCHAR
STARTCHAR Oacute
ENCODING 211
SWIDTH 775 0
DWIDTH 14 0
BBX 14 19 0 -1
BITMAP
00000002630000
000007CFFC0000
00003FFFFE0000
00001EEA510000
00000355200000
0004CFFFFC4000
007FFFFFFFF600
05FFFFEEFFFF40
0DFFD4005EFFD0
4FFF300003FFF3
7FFB000000CFF6
8FFA000000BFF7
7FFC000000DFF6
4FFF400004FFF2
0DFFE6116EFFC0
04FFFFFFFFFF30
005FFFFFFFF500
0003BFFFFB3000
00000133100000
ENDCHAR
STARTCHAR Ocircumflex
ENCODING 212
SWIDTH 775 0
DWIDTH 14 0
BBX 14 19 0 -1
BITMAP
00000166100000
0003BFFFFB3000
0007FFFFFF8000
0001BA44AC1000
00000255200000
0004CFFFFC4000
007FFFFFFFF600
05FFFFEEFFFF40
0DFFD4005EFFD0
4FFF300003FFF3
7FFB000000CFF6
8FFA000000BFF7
7FFC000000DFF6
4FFF400004FFF2
0DFFE6116EFFC0
04FFFFFFFFFF30
005FFFFFFFF500
0003BFFFFB3000
00000133100000
ENDCHAR
STARTCHAR Otilde
ENCODING 213
SWIDTH 775 0
DWIDTH 14 0
BBX 14 19 0 -1
BITMAP
00000572062000
0000AFFFBFD000
0002FFEFFF8000
00007718B70000
00000255200000
0004CFFFFC4000
007FFFFFFFF600
05FFFFEEFFFF40
0DFFD4005EFFD0
4FFF300003FFF3
7FFB000000CFF6
8FFA000000BFF7
7FFC000000DFF6
4FFF400004FFF2
0DFFE6116EFFC0
04FFFFFFFFFF30
005FFFFFFFF500
0003BFFFFB3000
00000133100000
ENDCHAR
STARTCHAR Odieresis
ENCODING 214
SWIDTH 775 0
DWIDTH 14 0
BBX 14 19 0 -1
BITMAP
00057400573000
001FFF03FFD000
002FFF14FFE000
0007A6008A5000
00000255200000
0004CFFFFC4000
007FFFFFFFF600
05FFFFEEFFFF40
0DFFD4005EFFD0
4FFF300003FFF3
7FFB000000CFF6
8FFA000000BFF7
7FFC000000DFF6
4FFF400004FFF2
0DFFE6116EFFC0
04FFFFFFFFFF30
005FFFFFFFF500
0003BFFFFB3000
00000133100000
ENDCHAR
STARTCHAR multiply
ENCODING 215
SWIDTH 521 0
DWIDTH 9 0
BBX 9 9 0 0
BITMAP
1BC2008D40
7FFD29FFD0
2DFFEFFF60
02DFFFF600
009FFFE200
09FFFFFD10
6FFF8DFFB0
4FF702DFA0
0340002500
ENDCHAR
STARTCHAR Oslash
ENCODING 216
SWIDTH 775 0
DWIDTH 14 0
BBX 14 15 0 -1
BITMAP
000002554FC200
0004CFFFFFF700
007FFFFFFFF700
05FFFFEFFFFF40
0DFFD42FFFFFD0
4FFF309FFDFFF3
7FFB02FFF3DFF6
8FFA08FFB0BFF7
7FFC1EFF40DFF6
3FFFBFFB05FFF3
0CFFFFF56EFFC0
04FFFFFFFFFF30
006FFFFFFFF500
004FFFFFFB3000
001AE523100000
ENDCHAR
STARTCHAR Ugrave
ENCODING 217
SWIDTH 726 0
DWIDTH 13 0
BBX 13 19 0 -1
BITMAP
00022000000000
000DFD83000000
001FFFFF200000
00049EFE000000
01310033003100
2FFB00000AFF30
4FFE00000DFF50
4FFE00000DFF50
4FFE00000DFF50
4FFE00000DFF50
4FFE00000DFF50
4FFE00000DFF50
3FFF00000EFF40
1FFF50004FFF20
0BFFD303DFFC00
04FFFFFFFFF400
007FFFFFFF8000
0005CFFFD50000
00000232000000
ENDCHAR
STARTCHAR Uacute
ENCODING 218
SWIDTH 726 0
DWIDTH 13 0
BBX 13 19 0 -1
BITMAP
00000002630000
000007CFFC0000
00003FFFFE0000
00001EEA510000
01310100003100
2FFB00000AFF30
4FFE00000DFF50
4FFE00000DFF50
4FFE00000DFF50
4FFE00000DFF50
4FFE00000DFF50
4FFE00000DFF50
3FFF00000EFF40
1FFF50004FFF20
0BFFD303DFFC00
04FFFFFFFFF400
007FFFFFFF8000
0005CFFFD50000
00000232000000
ENDCHAR
STARTCHAR Ucircumflex
ENCODING 219
SWIDTH 726 0
DWIDTH 13 0
BBX 13 19 0 -1
BITMAP
00000275100000
0005CFFFFA1000
000BFFFFFF4000
0003C935BA0000
01310000003100
2FFB00000AFF30
4FFE00000DFF50
4FFE00000DFF50
4FFE00000DFF50
4FFE00000DFF50
4FFE00000DFF50
4FFE00000DFF50
3FFF00000EFF40
1FFF50004FFF20
0BFFD303DFFC00
04FFFFFFFFF400
007FFFFFFF8000
0005CFFFD50000
00000232000000
ENDCHAR
STARTCHAR Udieresis
ENCODING 220
SWIDTH 726 0
DWIDTH 13 0
BBX 13 19 0 -1
BITMAP
00167201771000
007FFA09FF8000
007FFA09FF8000
0029A303992000
01310000003100
2FFB00000AFF30
4FFE00000DFF50
4FFE00000DFF50
4FFE00000DFF50
4FFE00000DFF50
4FFE00000DFF50
4FFE00000DFF50
3FFF00000EFF40
1FFF50004FFF20
0BFFD303DFFC00
04FFFFFFFFF400
007FFFFFFF8000
0005CFFFD50000
00000232000000
ENDCHAR
STARTCHAR Yacute
ENCODING 221
SWIDTH 686 0
DWIDTH 12 0
BBX 12 18 0 0
BITMAP
000000155000
00006BFFE000
0001FFFFE100
0000CFA61000
024011000240
5FF600001EFA
AFFE1000AFFE
2EFFA004FFF7
07FFF41DFFC0
00CFFD9FFF20
002EFFFFF700
0007FFFFC000
0000BFFF2000
00006FFC0000
00006FFC0000
00006FFC0000
00006FFC0000
00003EF70000
ENDCHAR
STARTCHAR Thorn
ENCODING 222
SWIDTH 634 0
DWIDTH 11 0
BBX 11 14 0 0
BITMAP
012000000000
2EFB00000000
4FFE66520000
4FFFFFFFA100
4FFFFFFFFD10
4FFFCCDFFF80
4FFE0009FFC0
4FFE0004FFD0
4FFE001AFFC0
4FFFFFFFFF60
4FFFFFFFFB00
4FFFFFFE8000
4FFE33200000
1DE900000000
ENDCHAR
STARTCHAR germandbls
ENCODING 223
SWIDTH 633 0
DWIDTH 11 0
BBX 11 15 0 -1
BITMAP
000478630000
04DFFFFFB000
0EFFFFFFF400
3FFF52CFF400
4FFD03FFE100
4FFC0BFF5000
4FFC0EFE0000
4FFC0CFFB100
4FFC03EFFE20
4FFC001BFFA0
4FFC0101FFE0
4FFC1EECFFD0
4FFC3FFFFF80
4FFC1BEFE910
078300000000
ENDCHAR
STARTCHAR agrave
ENCODING 224
SWIDTH 596 0
DWIDTH 11 0
BBX 10 14 0 0
BITMAP
0008C83000
000EFFFD20
0009EFFF20
0000048900
0003650473
00AFFFDFFE
0AFFFFFFFF
3FFFDBFFFF
7FFC008FFF
8FFA005FFF
5FFF64CFFF
1EFFFFFFFF
04FFFFFFFF
003BEC5CEA
ENDCHAR
STARTCHAR aacute
ENCODING 225
SWIDTH 596 0
DWIDTH 11 0
BBX 10 14 0 0
BITMAP
000015AD20
0008FFFF60
000AFFFC30
0004A61000
0003650473
00AFFFDFFE
0AFFFFFFFF
3FFFDBFFFF
7FFC008FFF
8FFA005FFF
5FFF64CFFF
1EFFFFFFFF
04FFFFFFFF
003BEC5CEA
ENDCHAR
STARTCHAR acircumflex
ENCODING 226
SWIDTH 596 0
DWIDTH 11 0
BBX 10 14 0 0
BITMAP
00038DC720
008FFFFFF4
007FFCDFF4
0006300550
0003650473
00AFFFDFFE
0AFFFFFFFF
3FFFDBFFFF
7FFC008FFF
8FFA005FFF
5FFF64CFFF
1EFFFFFFFF
04FFFFFFFF
003BEC5CEA
ENDCHAR
STARTCHAR atilde
ENCODING 227
SWIDTH 596 0
DWIDTH 11 0
BBX 10 14 0 0
BITMAP
0007DB47B2
007FFFFFF5
008F9CFFA0
0004004400
0003650473
00AFFFDFFE
0AFFFFFFFF
3FFFDBFFFF
7FFC008FFF
8FFA005FFF
5FFF64CFFF
1EFFFFFFFF
04FFFFFFFF
003BEC5CEA
ENDCHAR
STARTCHAR adieresis
ENCODING 228
SWIDTH 596 0
DWIDTH 11 0
BBX 10 14 0 0
BITMAP
00BD901CD8
02FFF05FFD
01FFE03FFC
0024100241
0003650473
00AFFFDFFE
0AFFFFFFFF
3FFFDBFFFF
7FFC008FFF
8FFA005FFF
5FFF64CFFF
1EFFFFFFFF
04FFFFFFFF
003BEC5CEA
ENDCHAR
STARTCHAR aring
ENCODING 229
SWIDTH 596 0
DWIDTH 11 0
BBX 10 14 0 0
BITMAP
0000165000
0000AAB700
0000D25A00
00006EE400
0003661473
00AFFFDFFE
0AFFFFFFFF
3FFFDBFFFF
7FFC008FFF
8FFA005FFF
5FFF64CFFF
1EFFFFFFFF
04FFFFFFFF
003BEC5CEA
ENDCHAR
STARTCHAR ae
ENCODING 230
SWIDTH 910 0
DWIDTH 16 0
BBX 16 11 0 -1
BITMAP
0027995002787300
08FFFFFC9FFFFFA0
3FFFFFFFFFFFFFF7
1DFE67FFFFA38FFD
027200AFFF658FFD
06CFFDCFFFFFFFF7
5FFC9ADFFF544420
8FF503BFFFE9ADE2
5FFFFFFDEFFFFFF6
08FFFE913BFFFD91
0002200000021000
ENDCHAR
STARTCHAR ccedilla
ENCODING 231
SWIDTH 524 0
DWIDTH 9 0
BBX 9 14 0 -4
BITMAP
00049A8300
01BFFFFF80
0BFFFFFFE0
3FFFDAEF60
7FFE101300
7FFC000000
5FFF738A10
1EFFFFFFB0
04EFFFFFC0
003BFFFA10
0004FFC000
00007AF100
0004FFC000
0000561000
ENDCHAR
STARTCHAR egrave
ENCODING 232
SWIDTH 573 0
DWIDTH 10 0
BBX 10 15 0 -1
BITMAP
001DA61000
006FFFF900
003BFFFB00
000016A400
00049A9500
01BFFFFFA0
0BFFFFFFF7
4FFF939FFC
7FFE559FFC
8FFFFFFFF7
6FFE544430
1FFFD89CC1
06FFFFFFF5
005DFFFFB1
0000233100
ENDCHAR
STARTCHAR eacute
ENCODING 233
SWIDTH 573 0
DWIDTH 10 0
BBX 10 15 0 -1
BITMAP
000026BC00
000AFFFF40
000DFFFB10
0005A51000
00049A9500
01BFFFFFA0
0BFFFFFFF7
4FFF939FFC
7FFE559FFC
8FFFFFFFF7
6FFE544430
1FFFD89CC1
06FFFFFFF5
005DFFFFB1
0000233100
ENDCHAR
STARTCHAR ecircumflex
ENCODING 234
SWIDTH 573 0
DWIDTH 10 0
BBX 10 15 0 -1
BITMAP
0016BD9400
02EFFFFFB0
01EFEBFFA0
0035102610
00049A9500
01BFFFFFA0
0BFFFFFFF7
4FFF939FFC
7FFE559FFC
8FFFFFFFF7
6FFE544430
1FFFD89CC1
06FFFFFFF5
005DFFFFB1
0000233100
ENDCHAR
STARTCHAR edieresis
ENCODING 235
SWIDTH 573 0
DWIDTH 10 0
BBX 10 15 0 -1
BITMAP
07DC209DB1
0DFF50FFF3
0BFF40DFF2
0143001420
00049A9500
01BFFFFFA0
0BFFFFFFF7
4FFF939FFC
7FFE559FFC
8FFFFFFFF7
6FFE544430
1FFFD89CC1
06FFFFFFF5
005DFFFFB1
0000233100
ENDCHAR
STARTCHAR igrave
ENCODING 236
SWIDTH 255 0
DWIDTH 5 0
BBX 6 14 -1 0
BITMAP
6D9400
CFFFE4
6DFFF5
0038A1
005720
03FFC0
04FFD0
04FFD0
04FFD0
04FFD0
04FFD0
04FFD0
04FFD0
01DE80
ENDCHAR
STARTCHAR iacute
ENCODING 237
SWIDTH 255 0
DWIDTH 5 0
BBX 6 14 0 0
BITMAP
015AD2
7FFFF8
9FFFC4
3A6200
057200
3FFC00
4FFD00
4FFD00
4FFD00
4FFD00
4FFD00
4FFD00
4FFD00
1DE800
ENDCHAR
STARTCHAR icircumflex
ENCODING 238
SWIDTH 255 0
DWIDTH 5 0
BBX 8 14 -2 0
BITMAP
016BD940
2EFFFFFB
1EFEBFFA
03510261
00057200
003FFC00
004FFD00
004FFD00
004FFD00
004FFD00
004FFD00
004FFD00
004FFD00
001DE800
ENDCHAR
STARTCHAR idieresis
ENCODING 239
SWIDTH 255 0
DWIDTH 5 0
BBX 9 14 -2 0
BITMAP
5DC307DC20
BFF70DFF50
9FF60BFF40
0430014300
0005720000
003FFD0000
004FFD0000
004FFD0000
004FFD0000
004FFD0000
004FFD0000
004FFD0000
004FFD0000
001DE90000
ENDCHAR
STARTCHAR eth
ENCODING 240
SWIDTH 585 0
DWIDTH 11 0
BBX 11 16 0 -1
BITMAP
000002500000
0008ACF10000
002FFFC00000
000AFFFB0000
000DD8FF8000
0003536FF200
006EFFEEF800
07FFFFFFFC00
2FFFDBFFFE00
6FFC004FFF10
8FF9001FFF10
6FFD208FFD00
1EFFFFFFF700
05FFFFFFB000
004CFFE91000
000012000000
ENDCHAR
STARTCHAR ntilde
ENCODING 241
SWIDTH 606 0
DWIDTH 11 0
BBX 11 14 0 0
BITMAP
002AD92B8000
00CFFFFFE000
00DE8EFF6000
001301520000
057316630000
3FFDDFFF8000
4FFFFFFFF600
4FFFEAEFFD00
4FFF203FFF20
4FFD000FFF30
4FFD000FFF30
4FFD000FFF30
4FFD000FFF30
1DE8000AEC10
ENDCHAR
STARTCHAR ograve
ENCODING 242
SWIDTH 600 0
DWIDTH 11 0
BBX 11 15 0 -1
BITMAP
000BB6200000
003FFFFB0000
001AFFFE0000
000015960000
00049A830000
01BFFFFF8000
0AFFFFFFF700
3FFFB8DFFF10
7FFC001EFF40
8FFA000EFF50
5FFF417FFF20
1EFFFFFFFB00
04FFFFFFE200
003BFFFA2000
000012000000
ENDCHAR
STARTCHAR oacute
ENCODING 243
SWIDTH 600 0
DWIDTH 11 0
BBX 11 15 0 -1
BITMAP
000016AD1000
0009FFFF6000
000BFFFB3000
0004A6100000
00049A830000
01BFFFFF8000
0AFFFFFFF700
3FFFB8DFFF10
7FFC001EFF40
8FFA000EFF50
5FFF417FFF20
1EFFFFFFFB00
04FFFFFFE200
003BFFFA2000
000012000000
ENDCHAR
STARTCHAR ocircumflex
ENCODING 244
SWIDTH 600 0
DWIDTH 11 0
BBX 11 15 0 -1
BITMAP
0015ADA50000
01EFFFFFD000
00DFFBFFC000
002610162000
00049A830000
01BFFFFF8000
0AFFFFFFF700
3FFFB8DFFF10
7FFC001EFF40
8FFA000EFF50
5FFF417FFF20
1EFFFFFFFB00
04FFFFFFE200
003BFFFA2000
000012000000
ENDCHAR
STARTCHAR otilde
ENCODING 245
SWIDTH 600 0
DWIDTH 11 0
BBX 11 15 0 -1
BITMAP
002BD92B8000
00DFFFFFE000
01EE8EFF5000
001202520000
00049A830000
01BFFFFF8000
0AFFFFFFF700
3FFFB8DFFF10
7FFC001EFF40
8FFA000EFF50
5FFF417FFF20
1EFFFFFFFB00
04FFFFFFE200
003BFFFA2000
000012000000
ENDCHAR
STARTCHAR odieresis
ENCODING 246
SWIDTH 600 0
DWIDTH 11 0
BBX 11 15 0 -1
BITMAP
05DC307DC200
0BFF70DFF500
09FF60BFF400
004300143000
00049A830000
01BFFFFF8000
0AFFFFFFF700
3FFFB8DFFF10
7FFC001EFF40
8FFA000EFF50
5FFF417FFF20
1EFFFFFFFB00
04FFFFFFE200
003BFFFA2000
000012000000
ENDCHAR
STARTCHAR divide
ENCODING 247
SWIDTH 503 0
DWIDTH 9 0
BBX 9 10 0 0
BITMAP
0007C80000
000EFF0000
000BFC0000
0344544300
6FFFFFFF70
7FFFFFFF80
0555555510
0009EA0000
000EFF0000
0009EA0000
ENDCHAR
STARTCHAR oslash
ENCODING 248
SWIDTH 600 0
DWIDTH 11 0
BBX 11 16 0 -3
BITMAP
000000022000
0000001EF800
0000008FFB00
00049AEFF500
01BFFFFFE000
0AFFFFFFF700
3FFFC8DFFE10
7FFC001FFF40
8FFA000EFF50
6FFE417FFF20
1EFFFFFFFB00
04FFFFFFE200
04FFFFFA2000
0BFF82100000
0FFE10000000
04B600000000
ENDCHAR
STARTCHAR ugrave
ENCODING 249
SWIDTH 606 0
DWIDTH 11 0
BBX 11 14 0 0
BITMAP
000CB6200000
003FFFFB0000
001BFFFD0000
000015A60000
057300037500
3FFC000EFF20
4FFD000FFF30
4FFD000FFF30
4FFD000FFF30
4FFE000FFF30
2FFF839FFF30
0CFFFFFFFF30
03EFFFFFFF30
003AED59EC10
ENDCHAR
STARTCHAR uacute
ENCODING 250
SWIDTH 606 0
DWIDTH 11 0
BBX 11 14 0 0
BITMAP
0000049D4000
0005EFFFA000
0007FFFD5000
0001A7200000
057300037500
3FFC000EFF20
4FFD000FFF30
4FFD000FFF30
4FFD000FFF30
4FFE000FFF30
2FFF839FFF30
0CFFFFFFFF30
03EFFFFFFF30
003AED59EC10
ENDCHAR
STARTCHAR ucircumflex
ENCODING 251
SWIDTH 606 0
DWIDTH 11 0
BBX 11 14 0 0
BITMAP
0005ADA51000
00DFFFFFE100
00CFFBEFD000
002610163000
057300037500
3FFC000EFF20
4FFD000FFF30
4FFD000FFF30
4FFD000FFF30
4FFE000FFF30
2FFF839FFF30
0CFFFFFFFF30
03EFFFFFFF30
003AED59EC10
ENDCHAR
STARTCHAR udieresis
ENCODING 252
SWIDTH 606 0
DWIDTH 11 0
BBX 11 14 0 0
BITMAP
04DD406DC200
09FF90BFF700
08FF70AFF500
004300143000
057300037500
3FFC000EFF20
4FFD000FFF30
4FFD000FFF30
4FFD000FFF30
4FFE000FFF30
2FFF839FFF30
0CFFFFFFFF30
03EFFFFFFF30
003AED59EC10
ENDCHAR
STARTCHAR yacute
ENCODING 253
SWIDTH 604 0
DWIDTH 11 0
BBX 11 19 0 -5
BITMAP
0000159D4000
0006EFFF9000
0007FFFC5000
0002A7200000
079000018500
8FF80009FF70
7FFF201EFF60
0DFFB07FFE00
05FFF5EFF700
00BFFFFFE100
002FFFFF9000
0008FFFF2000
0001EFFB0000
0002FFF40000
0009FFC00000
001EFF500000
006FFD000000
003EF7000000
000030000000
ENDCHAR
STARTCHAR thorn
ENCODING 254
SWIDTH 580 0
DWIDTH 10 0
BBX 10 19 0 -4
BITMAP
0120000000
2EF7000000
4FFA000000
4FFA000000
4FFA000000
4FFA365100
4FFEFFFD30
4FFFFFFFE2
4FFFDBFFF9
4FFD106FFE
4FFB003FFE
4FFF64CFFC
4FFFFFFFF6
4FFFFFFFA0
4FFBAED700
4FFA000000
4FFA000000
4FFA000000
2EF6000000
ENDCHAR
STARTCHAR ydieresis
ENCODING 255
SWIDTH 604 0
DWIDTH 11 0
BBX 11 19 0 -5
BITMAP
02CD604DD400
06FFC08FF900
05FFA07FF800
003410034000
079000018500
8FF80009FF70
7FFF201EFF60
0DFFB07FFE00
05FFF5EFF700
00BFFFFFE100
002FFFFF9000
0008FFFF2000
0001EFFB0000
0002FFF40000
0009FFC00000
001EFF500000
006FFD000000
003EF7000000
000030000000
ENDCHAR
STARTCHAR dotlessi
ENCODING 305
SWIDTH 255 0
DWIDTH 5 0
BBX 4 10 0 0
BITMAP
0572
3FFC
4FFD
4FFD
4FFD
4FFD
4FFD
4FFD
4FFD
1DE8
ENDCHAR
STARTCHAR Lslash
ENCODING 321
SWIDTH 687 0
DWIDTH 12 0
BBX 12 14 0 0
BITMAP
000120000000
005FF8000000
007FFA000000
007FFB000000
007FFB000000
007FFDBD1000
05BFFFFF4000
7FFFFEA50000
4EEFFB000000
007FFB000000
007FFB000000
007FFDAAAAA6
007FFFFFFFFD
003EFFFFFFFA
ENDCHAR
STARTCHAR lslash
ENCODING 322
SWIDTH 468 0
DWIDTH 8 0
BBX 9 14 0 0
BITMAP
005DD30000
009FF80000
009FF80000
009FF80000
009FF80000
009FFCCB00
16DFFFFF10
AFFFFE9400
6EEFF80000
009FF80000
009FF90000
008FFFE200
005FFFF400
0008DFE100
ENDCHAR
STARTCHAR OE
ENCODING 338
SWIDTH 1092 0
DWIDTH 20 0
BBX 20 14 0 0
BITMAP
00000123333333333310
0003BFFFFFFFFFFFFFE1
006FFFFFFFFFFFFFFFF3
04FFFFFEEFFFFFFFFFD1
0DFFE5002FFF10000000
4FFF40002FFF43331000
7FFC00002FFFFFFFE100
8FFA00002FFFFFFFF300
7FFD00002FFFFFFFD100
3FFF50002FFF10000000
0CFFF8323FFF43333310
03EFFFFFFFFFFFFFFFE1
003EFFFFFFFFFFFFFFF3
00017CFFFFFFFFFFFFD1
ENDCHAR
STARTCHAR oe
ENCODING 339
SWIDTH 944 0
DWIDTH 17 0
BBX 17 11 0 -1
BITMAP
00049A830048861000
01AFFFFF9CFFFFE500
0AFFFFFFFFFFFFFF20
3FFFC8DFFFF64CFF70
7FFC001FFFC55CFF70
8FFA000EFFFFFFFE20
6FFE407FFFC4444100
1EFFFFFFFFFC9AE900
04FFFFFFFFFFFFFF00
003CFFFB26DFFFC600
000013100001200000
ENDCHAR
STARTCHAR Scaron
ENCODING 352
SWIDTH 583 0
DWIDTH 11 0
BBX 10 19 0 -1
BITMAP
0056103710
02FFECFFA0
03EFFFFFA0
0016BC8300
0002564000
01AFFFFE60
0AFFFFFFF3
2FFFB9EFD1
4FFE002720
3FFF830000
0CFFFFEA30
02CFFFFFF5
00049DFFFC
0460006FFF
4FFA105FFF
6FFFECFFFB
0BFFFFFFE2
007EFFFA20
0000120000
ENDCHAR
STARTCHAR scaron
ENCODING 353
SWIDTH 489 0
DWIDTH 9 0
BBX 9 15 0 -1
BITMAP
0BC539D400
4FFFFFFB00
1AEFFFC500
0015620000
0048A95000
09FFFFFC00
1FFFDEFA00
3FFC204100
1EFFFEA200
06FFFFFE10
0237BFFF40
2FE96CFF50
7FFFFFFE10
17DFFFC400
0001210000
ENDCHAR
STARTCHAR Ydieresis
ENCODING 376
SWIDTH 686 0
DWIDTH 12 0
BBX 12 18 0 0
BITMAP
003760047500
00CFF40FFF20
00DFF50FFF30
005A8106A800
024000000240
5FF600001EFA
AFFE1000AFFE
2EFFA004FFF7
07FFF41DFFC0
00CFFD9FFF20
002EFFFFF700
0007FFFFC000
0000BFFF2000
00006FFC0000
00006FFC0000
00006FFC0000
00006FFC0000
00003EF70000
ENDCHAR
STARTCHAR Zcaron
ENCODING 381
SWIDTH 643 0
DWIDTH 12 0
BBX 12 18 0 0
BITMAP
001730155000
009FFCEFF300
00AFFFFFE300
00038CB61000
023333333200
5FFFFFFFFF80
8FFFFFFFFFC0
3DEEEEFFFF60
000003FFFB00
00001DFFE100
00009FFF4000
0005FFF80000
002EFFC00000
00CFFE200000
08FFF7111100
3FFFFFFFFFD0
7FFFFFFFFFF1
2DFFFFFFFFC0
ENDCHAR
STARTCHAR zcaron
ENCODING 382
SWIDTH 586 0
DWIDTH 11 0
BBX 11 14 0 0
BITMAP
008C728C7000
01FFFFFFE000
008EFFFD7000
000047300000
057777776100
1FFFFFFFFA00
2FFFFFFFFB00
07AABFFFE300
0002DFFD2000
003EFFC10000
04EFFD332100
3FFFFFFFFD00
7FFFFFFFFF10
2DFFFFFFFC00
ENDCHAR
STARTCHAR florin
ENCODING 402
SWIDTH 529 0
DWIDTH 10 0
BBX 10 18 0 -4
BITMAP
0000002540
00001AFFF3
0000AFFFF3
0002FFFC90
0006FFB000
03DEFFEDC1
08FFFFFFF3
07FFFFFFE1
003DFF6310
000EFF3000
000FFF1000
002FFF0000
004FFD0000
005FFB0000
008FF90000
6EFFF40000
EFFFC00000
CFEA100000
ENDCHAR
STARTCHAR circumflex
ENCODING 710
SWIDTH 603 0
DWIDTH 11 0
BBX 8 4 1 10
BITMAP
015ADA50
1EFFFFFD
0EFEBFFC
02610162
ENDCHAR
STARTCHAR caron
ENCODING 711
SWIDTH 600 0
DWIDTH 11 0
BBX 8 4 1 10
BITMAP
08C728D6
1FFFFFFE
08EFFFD7
00047300
ENDCHAR
STARTCHAR dotaccent
ENCODING 729
SWIDTH 285 0
DWIDTH 5 0
BBX 4 4 1 12
BITMAP
7B90
EFF3
CFF2
1530
ENDCHAR
STARTCHAR ring
ENCODING 730
SWIDTH 378 0
DWIDTH 7 0
BBX 5 6 1 11
BITMAP
057300
7EBF40
D609A0
B93C80
3DFC10
001000
ENDCHAR
STARTCHAR ogonek
ENCODING 731
SWIDTH 570 0
DWIDTH 10 0
BBX 4 5 3 -4
BITMAP
0671
8FF9
CD62
8FF9
0561
ENDCHAR
STARTCHAR tilde
ENCODING 732
SWIDTH 584 0
DWIDTH 11 0
BBX 8 4 1 10
BITMAP
06DC55C3
5FFFFFF7
6FBBFFC1
03004400
ENDCHAR
STARTCHAR endash
ENCODING 8211
SWIDTH 561 0
DWIDTH 10 0
BBX 10 4 0 3
BITMAP
1566666652
AFFFFFFFFB
AFFFFFFFFC
2888888883
ENDCHAR
STARTCHAR emdash
ENCODING 8212
SWIDTH 693 0
DWIDTH 12 0
BBX 13 4 0 3
BITMAP
15666666666300
AFFFFFFFFFFF20
AFFFFFFFFFFF20
28888888888600
ENDCHAR
STARTCHAR quoteleft
ENCODING 8216
SWIDTH 237 0
DWIDTH 4 0
BBX 4 7 0 7
BITMAP
0001
03EB
0DE2
4FB1
7FFA
8FFC
4EF8
ENDCHAR
STARTCHAR quoteright
ENCODING 8217
SWIDTH 237 0
DWIDTH 4 0
BBX 4 7 0 7
BITMAP
0220
5FF9
8FFC
5FFB
07F7
2CE1
7D40
ENDCHAR
STARTCHAR quotesinglbase
ENCODING 8218
SWIDTH 237 0
DWIDTH 4 0
BBX 4 7 0 -3
BITMAP
0451
6FFB
8FFC
4EFA
06F7
3DE1
6B30
ENDCHAR
STARTCHAR quotedblleft
ENCODING 8220
SWIDTH 482 0
DWIDTH 9 0
BBX 9 7 0 7
BITMAP
0001000200
03EB00BF20
0DE207F700
4FB10DF300
7FFA1FFF10
8FFC2FFF30
4EF80CFC10
ENDCHAR
STARTCHAR quotedblright
ENCODING 8221
SWIDTH 482 0
DWIDTH 9 0
BBX 9 7 0 7
BITMAP
0220013100
5FF91EFE10
8FFC2FFF30
5FFB1EFF10
07F701FD00
2CE108F600
7D401F9000
ENDCHAR
STARTCHAR quotedblbase
ENCODING 8222
SWIDTH 482 0
DWIDTH 9 0
BBX 9 7 0 -3
BITMAP
0451025300
6FFB1EFF10
8FFC2FFF30
4EFA0CFF10
06F701FC00
3DE10AF500
6B301C7000
ENDCHAR
STARTCHAR dagger
ENCODING 8224
SWIDTH 527 0
DWIDTH 9 0
BBX 10 18 0 -4
BITMAP
0002650000
000BFF3000
000CFF4000
000CFF4000
032DFF6310
9FFFFFFFF1
AFFFFFFFF3
399EFFA970
000CFF4000
000CFF4000
000CFF4000
000CFF4000
000CFF4000
000CFF4000
000CFF4000
000CFF4000
000BFF3000
0002640000
ENDCHAR
STARTCHAR daggerdbl
ENCODING 8225
SWIDTH 527 0
DWIDTH 9 0
BBX 10 18 0 -4
BITMAP
0002650000
000BFF3000
000CFF4000
000CFF4000
032DFF6310
9FFFFFFFF1
AFFFFFFFF3
399EFFA970
000CFF4000
000CFF4000
4A9EFFBA80
AFFFFFFFF3
8FFFFFFFF1
022CFF5210
000CFF4000
000CFF4000
000BFF3000
0002640000
ENDCHAR
STARTCHAR bullet
ENCODING 8226
SWIDTH 342 0
DWIDTH 6 0
BBX 6 6 0 3
BITMAP
003410
1DFFE2
6FFFF9
8FFFFA
5FFFF7
08DD91
ENDCHAR
STARTCHAR ellipsis
ENCODING 8230
SWIDTH 911 0
DWIDTH 16 0
BBX 16 4 0 0
BITMAP
0451000451000351
6FFB006FFB004FFC
8FFC007FFD006FFE
4EF8003EF8002EF9
ENDCHAR
STARTCHAR perthousand
ENCODING 8240
SWIDTH 1223 0
DWIDTH 22 0
BBX 22 15 0 -1
BITMAP
0003200000CA0000000000
04EFFB0005F70000000000
0DFEFF700DD00000000000
3FC05FA06F600000000000
3FB04FB0DD000000000000
1EFBEF87F5000000000000
06FFFD2EC0000000000000
0036518F428A710028A700
000001EB1EFFFB02EFFFA0
000008F37FC8EF39FB8EF2
00002FA09F509F5BF30BF4
00009F208F93CF4AF73DF3
0002F9003FFFFE15FFFFD0
0009F20005DFC4006DFC30
0003500000000000000000
ENDCHAR
STARTCHAR guilsinglleft
ENCODING 8249
SWIDTH 383 0
DWIDTH 7 0
BBX 7 10 0 0
BITMAP
00005400
0007FF40
007FFF70
07FFFB00
6FFFB000
AFFF4000
2DFFE400
02DFFE30
002DFF80
0002CB10
ENDCHAR
STARTCHAR guilsinglright
ENCODING 8250
SWIDTH 383 0
DWIDTH 7 0
BBX 7 10 0 0
BITMAP
04400000
6FF60000
9FFF6000
1CFFF600
01CFFF50
006FFF80
05FFFC10
4FFFC100
AFFC1000
2CB10000
ENDCHAR
STARTCHAR fraction
ENCODING 8260
SWIDTH 433 0
DWIDTH 8 0
BBX 10 16 0 -1
BITMAP
0000000010
00000005F3
0000000CD0
0000006F60
000000DD00
000006F500
00001EC000
00007F4000
0001EB0000
0008F30000
002FA00000
009F300000
02FA000000
0AF2000000
2F90000000
0610000000
ENDCHAR
STARTCHAR Euro
ENCODING 8364
SWIDTH 612 0
DWIDTH 11 0
BBX 11 14 0 0
BITMAP
000039CDDC30
0008FFFFFF80
004FFFFFFF60
00BFFD544400
26FFF9665100
BFFFFFFFF800
4AFFE8888300
39FFE6666200
BFFFFFFFF800
47FFF9777200
00AFFB433200
004FFFFFFF50
0009FFFFFF80
00005CEFFE40
ENDCHAR
STARTCHAR trademark
ENCODING 8482
SWIDTH 840 0
DWIDTH 15 0
BBX 15 8 0 4
BITMAP
3666663161002500
BFFFFFB9FB02EF50
6BDFEB6AFF7BFF60
009FA00AFFFFFF60
009FA00AFFFFFF60
009FA00AFBEBDF60
009FA00AF800CF60
004A4005A4006A30
ENDCHAR
STARTCHAR minus
ENCODING 8722
SWIDTH 581 0
DWIDTH 10 0
BBX 10 4 0 3
BITMAP
1566666662
7FFFFFFFFE
7FFFFFFFFE
1788888884
ENDCHAR
STARTCHAR f_f
ENCODING 64256
SWIDTH 803 0
DWIDTH 14 0
BBX 15 14 0 0
BITMAP
0005CED202AEE600
005FFFF51DFFFA00
00DFFFF37FFFF800
01FFF520AFF92000
27FFF776CFFA7500
AFFFFFFFFFFFFF20
BFFFFFFFFFFFFF20
4AFFFAAADFFCA700
01FFF100BFF70000
01FFF100BFF70000
01FFF100BFF70000
01FFF100BFF70000
01FFF100BFF70000
00BFB0006EE30000
ENDCHAR
STARTCHAR fi
ENCODING 64257
SWIDTH 709 0
DWIDTH 13 0
BBX 13 14 0 0
BITMAP
0005CED20AD900
004FFFF51FFF00
00CFFFF30EFD00
01FFF520013100
16FFF772047300
AFFFFFFB1FFF00
AFFFFFFC2FFF10
4AFFFAA42FFF10
01FFF1002FFF10
01FFF1002FFF10
01FFF1002FFF10
01FFF1002FFF10
01FFF1001FFF10
00BFB0000CFB00
ENDCHAR
STARTCHAR fl
ENCODING 64258
SWIDTH 774 0
DWIDTH 14 0
BBX 14 14 0 0
BITMAP
0005CED21CE800
004FFFF53FFE00
00CFFFF34FFE00
01FFF5204FFE00
16FFF7724FFE00
AFFFFFFB4FFE00
AFFFFFFC4FFE00
4AFFFAA44FFE00
01FFF1004FFE00
01FFF1004FFE00
01FFF1003FFE10
01FFF1002FFFF7
01FFF1000EFFF9
00BFB00004CEF6
ENDCHAR
STARTCHAR f_f_i
ENCODING 64259
SWIDTH 1059 0
DWIDTH 19 0
BBX 19 14 0 0
BITMAP
0005CED202AEE605CB10
005FFFF51DFFFA0CFF50
00DFFFF37FFFF80AFF30
01FFF520AFF920014300
27FFF776CFFA75015400
AFFFFFFFFFFFFF2BFF40
BFFFFFFFFFFFFF2CFF50
4AFFFAAADFFCA70CFF50
01FFF100BFF7000CFF50
01FFF100BFF7000CFF50
01FFF100BFF7000CFF50
01FFF100BFF7000CFF50
01FFF100BFF7000CFF50
00BFB0006EE30008ED20
ENDCHAR
STARTCHAR .notdef
ENCODING -1
SWIDTH 500 0
DWIDTH 9 0
BBX 1 1 0 0
BITMAP
00
ENDCHAR
STARTCHAR .null
ENCODING -1
SWIDTH 0 0
DWIDTH 0 0
BBX 1 1 0 0
BITMAP
00
ENDCHAR
STARTCHAR nonmarkingreturn
ENCODING -1
SWIDTH 333 0
DWIDTH 6 0
BBX 1 1 0 0
BITMAP
00
ENDCHAR
STARTCHAR f_t
ENCODING -1
SWIDTH 814 0
DWIDTH 15 0
BBX 15 14 0 0
BITMAP
0005CED200000000
005FFFF52AA30000
00DFFFF37FF90000
01FFF5208FF90000
27FFF776AFFC7500
AFFFFFFFFFFFFF40
BFFFFFFFFFFFFF50
4AFFFAAACFFDA910
01FFF1008FF90000
01FFF1008FF90000
01FFF1007FFB0000
01FFF1005FFFF900
01FFF1000DFFFD00
00BFB000019DF900
ENDCHAR
STARTCHAR t_t
ENCODING -1
SWIDTH 794 0
DWIDTH 14 0
BBX 14 13 0 0
BITMAP
007A70005A8000
01FFF100DFF400
01FFF100DFF400
27FFF777EFF873
AFFFFFFFFFFFFE
BFFFFFFFFFFFFE
4AFFFAAAEFFBA6
01FFF100DFF400
01FFF100DFF400
01FFF200CFF500
00DFFFD2AFFFE4
007FFFF43FFFF7
0006CED204BEE4
ENDCHAR
STARTCHAR l_l
ENCODING -1
SWIDTH 626 0
DWIDTH 11 0
BBX 11 14 0 0
BITMAP
1CE803DE6000
4FFD07FFB000
4FFD07FFB000
4FFD07FFB000
4FFD07FFB000
4FFD06FFB000
4FFD06FFB000
4FFD06FFB000
4FFD06FFB000
4FFD06FFB000
4FFE16FFD300
3FFFF5FFFFC0
0DFFF3CFFFE0
03BEC119DE90
ENDCHAR
STARTCHAR j_j
ENCODING -1
SWIDTH 521 0
DWIDTH 9 0
BBX 12 19 -3 -5
BITMAP
0001AC602BB4
0004FFC06FFA
0003FFA05FF8
000023100340
000056200561
0003FFB06FF9
0004FFC07FFA
0004FFC07FFA
0004FFC07FFA
0004FFC07FFA
0004FFC07FFA
0004FFC07FFA
0004FFC07FFA
0005FFC07FFA
000AFFA08FF9
2DFFFF6CFFF6
5FFFFB3FFFE1
3FFE701FFE40
012000012000
ENDCHAR
ENDFONT
